if (_typeface_js && _typeface_js.loadFace) _typeface_js.loadFace({"glyphs":{"0":{"ha":833,"x_min":29,"x_max":804,"o":"m 421 944 q 638 855 530 944 q 804 463 804 718 q 711 149 804 275 q 580 31 659 75 q 417 -18 496 -18 q 195 71 304 -18 q 29 461 29 207 q 122 777 29 654 q 254 896 176 850 q 421 944 336 944 m 415 926 q 340 812 365 926 q 316 461 316 698 q 338 122 316 267 q 372 26 347 64 q 417 0 390 0 q 493 112 468 0 q 517 453 517 223 q 495 804 517 672 q 415 926 475 926 z "},"1":{"ha":833,"x_min":144,"x_max":682,"o":"m 552 956 l 552 238 q 559 94 552 132 q 614 26 570 41 q 682 14 638 17 l 682 0 l 159 0 l 159 14 q 264 53 237 18 q 287 133 282 78 q 288 229 288 152 l 288 578 q 279 676 288 652 q 207 721 266 714 q 144 723 187 723 l 144 737 q 364 839 243 774 q 552 956 463 892 z "},"2":{"ha":833,"x_min":71,"x_max":762,"o":"m 123 679 l 109 679 q 431 944 185 944 q 663 853 577 944 q 734 677 734 778 q 606 450 734 542 q 499 391 559 417 q 418 359 484 385 q 252 286 294 311 q 146 192 189 245 l 487 192 q 661 208 616 192 q 724 245 701 220 q 748 283 734 257 l 762 283 q 714 134 722 164 q 670 -35 697 77 l 656 -35 q 647 -13 654 -20 q 597 -2 635 -2 q 549 -1 589 -2 q 503 0 517 0 l 71 0 q 110 169 75 106 q 185 256 132 207 q 261 321 200 269 q 368 427 326 377 q 447 614 447 519 q 409 725 447 681 q 283 779 363 779 q 172 743 218 779 q 123 679 144 723 z "},"3":{"ha":833,"x_min":60,"x_max":759,"o":"m 321 526 l 321 540 q 431 590 401 559 q 476 705 476 637 q 446 789 476 754 q 340 833 407 833 q 251 807 288 833 q 205 755 230 792 l 192 759 q 274 883 218 837 q 446 944 348 944 q 629 884 555 944 q 695 743 695 830 q 663 642 695 686 q 614 597 649 621 q 722 493 686 556 q 759 349 759 431 q 637 85 759 194 q 355 -18 519 -18 q 157 28 243 -18 q 86 94 112 52 q 60 185 60 136 q 89 275 60 239 q 183 317 123 317 q 265 283 234 317 q 296 205 296 250 q 288 138 296 181 q 280 79 280 104 q 304 23 280 45 q 374 -2 332 -2 q 474 51 438 -2 q 519 224 519 118 q 450 443 519 359 q 372 509 413 488 q 321 526 355 518 z "},"4":{"ha":833,"x_min":-21,"x_max":847,"o":"m 480 944 l 662 944 l 662 371 l 717 371 q 795 382 772 371 q 835 411 812 389 l 847 406 q 779 264 801 335 l 662 264 l 662 172 q 680 71 663 98 q 814 14 711 15 l 814 0 l 249 0 l 249 14 q 359 33 330 16 q 400 85 389 51 q 410 172 410 115 l 410 264 l 29 264 q -21 359 11 309 q 480 944 262 648 m 410 749 q 233 538 328 646 q 78 371 138 430 l 410 371 l 410 749 z "},"5":{"ha":833,"x_min":56,"x_max":764,"o":"m 665 756 l 197 756 l 181 644 q 319 655 241 655 q 612 589 505 655 q 723 472 682 547 q 764 313 764 399 q 665 90 764 185 q 538 8 608 34 q 376 -18 469 -18 q 177 18 263 -18 q 56 184 56 68 q 85 267 56 236 q 174 302 119 302 q 265 257 234 302 q 288 181 288 225 q 285 129 288 169 q 283 101 283 114 q 302 31 283 54 q 388 0 325 0 q 515 66 471 0 q 557 218 557 129 q 505 364 557 312 q 260 442 426 442 q 100 417 179 442 q 153 669 126 497 q 181 926 178 842 l 602 926 q 686 938 658 926 q 729 972 708 947 l 743 968 q 665 756 694 884 z "},"6":{"ha":833,"x_min":43,"x_max":795,"o":"m 614 979 l 623 968 q 345 596 433 871 q 444 612 395 612 q 692 524 588 612 q 795 307 795 437 q 695 81 795 173 q 575 8 645 35 q 431 -18 505 -18 q 161 91 273 -18 q 43 385 43 206 q 159 703 43 562 q 426 904 252 815 q 614 979 518 951 m 428 594 q 334 534 364 594 q 307 442 315 496 q 298 298 298 387 q 314 116 298 176 q 429 0 344 0 q 488 18 461 0 q 528 64 515 35 q 562 297 562 140 q 527 535 562 464 q 428 594 498 594 z "},"7":{"ha":833,"x_min":82,"x_max":761,"o":"m 173 972 l 186 972 q 213 939 195 949 q 294 926 239 926 l 761 926 q 743 819 760 869 q 667 662 722 761 q 524 382 578 505 q 462 211 485 297 q 439 62 439 125 q 443 0 439 42 l 140 0 q 175 183 147 109 q 361 437 220 301 q 549 596 426 498 q 690 734 629 661 l 368 734 q 234 730 261 734 q 125 686 160 719 q 96 652 113 675 l 82 652 q 136 814 109 720 q 173 972 162 906 z "},"8":{"ha":833,"x_min":52,"x_max":781,"o":"m 585 545 q 695 471 656 507 q 781 283 781 393 q 653 57 781 147 q 410 -18 547 -18 q 163 50 270 -18 q 80 138 110 84 q 52 245 52 189 q 222 477 52 384 q 102 669 102 554 q 204 872 102 794 q 441 944 298 944 q 633 888 553 944 q 724 739 724 825 q 665 604 724 662 q 585 545 642 579 m 568 553 q 627 726 627 637 q 582 869 627 814 q 457 926 535 926 q 355 886 394 926 q 316 784 316 846 q 428 626 316 692 q 515 581 441 618 q 568 553 530 573 m 237 466 q 189 280 189 382 q 248 82 189 168 q 411 0 304 0 q 523 37 481 0 q 575 165 575 83 q 519 297 575 240 q 378 391 478 339 q 237 466 288 437 z "},"9":{"ha":833,"x_min":27,"x_max":802,"o":"m 262 -33 l 254 -21 q 435 151 370 54 q 522 364 488 231 q 460 324 488 335 q 358 307 416 307 q 130 382 229 307 q 27 597 27 463 q 149 850 27 749 q 408 944 261 944 q 614 889 515 944 q 764 732 714 835 q 802 553 802 652 q 572 130 802 309 q 262 -33 427 17 m 405 926 q 326 886 361 926 q 269 631 269 822 q 298 411 269 490 q 340 352 311 374 q 404 330 369 330 q 540 616 540 330 q 511 834 540 749 q 405 926 480 926 z "}," ":{"ha":347,"x_min":0,"x_max":0,"o":""},"!":{"ha":403,"x_min":65,"x_max":375,"o":"m 235 307 l 221 307 q 203 408 218 361 q 153 520 189 452 q 102 623 136 553 q 65 747 65 697 q 221 972 65 864 q 316 890 288 922 q 375 755 375 823 q 317 564 375 692 q 259 425 275 469 q 235 307 239 372 m 221 249 q 314 210 275 249 q 353 115 353 171 q 314 21 353 60 q 220 -18 275 -18 q 125 21 164 -18 q 86 115 86 60 q 125 210 86 172 q 221 249 165 249 z "},"\"":{"ha":691,"x_min":28,"x_max":663,"o":"m 171 555 l 151 555 l 28 926 l 295 926 l 171 555 m 539 555 l 519 555 l 396 926 l 663 926 l 539 555 z "},"#":{"ha":779,"x_min":0,"x_max":779,"o":"m 487 570 l 549 926 l 577 926 l 515 570 l 779 570 l 773 542 l 509 542 l 481 385 l 746 385 l 741 357 l 477 357 l 414 0 l 386 0 l 449 357 l 292 357 l 229 0 l 201 0 l 264 357 l 0 357 l 5 385 l 269 385 l 296 542 l 33 542 l 37 570 l 302 570 l 364 926 l 392 926 l 330 570 l 487 570 m 481 542 l 324 542 l 296 385 l 454 385 l 481 542 z "},"$":{"ha":833,"x_min":39,"x_max":794,"o":"m 422 -18 l 422 -203 l 404 -203 l 404 -18 q 198 18 292 -17 q 39 201 39 78 q 68 273 39 243 q 146 304 100 304 q 254 237 216 304 q 277 176 270 209 q 284 121 277 170 q 322 36 292 66 q 404 1 352 5 l 404 344 l 334 368 q 157 456 224 404 q 70 643 70 526 q 147 831 70 750 q 404 943 248 937 l 404 1130 l 422 1130 l 422 944 q 447 945 439 945 q 667 896 568 945 q 742 831 712 873 q 764 764 764 800 q 745 705 764 732 q 666 668 716 668 q 580 701 619 668 q 531 785 549 728 q 491 888 507 866 q 463 913 478 905 q 422 925 451 920 l 422 616 l 551 574 q 732 471 675 533 q 794 307 794 404 q 730 126 794 208 q 422 -18 626 -7 m 422 0 q 522 22 486 3 q 574 71 554 39 q 600 157 600 111 q 524 291 600 240 q 422 338 486 317 l 422 0 m 404 926 q 309 897 340 922 q 264 788 264 859 q 303 684 264 726 q 404 622 334 648 l 404 926 z "},"%":{"ha":718,"x_min":28,"x_max":690,"o":"m 671 1014 l 690 1014 l 54 -41 l 35 -41 l 601 902 q 467 845 528 845 q 359 873 419 845 q 406 737 406 814 q 365 609 406 663 q 298 552 338 573 q 217 531 258 531 q 135 552 175 531 q 68 609 95 573 q 28 737 28 663 q 68 866 28 812 q 135 923 95 902 q 216 944 175 944 q 342 891 285 944 q 457 869 395 869 q 557 888 511 869 q 626 945 603 909 l 671 1014 m 214 926 q 171 874 186 926 q 153 737 153 814 q 171 602 153 663 q 215 549 186 549 q 259 602 244 549 q 277 736 277 662 q 259 874 277 817 q 214 926 243 926 m 501 395 q 581 374 541 395 q 646 317 620 353 q 687 188 687 262 q 646 60 687 114 q 580 3 620 24 q 498 -18 541 -18 q 417 3 456 -18 q 351 60 377 24 q 310 188 310 114 q 351 317 310 264 q 501 395 410 395 m 496 376 q 453 325 467 376 q 435 188 435 264 q 453 52 435 113 q 497 0 467 0 q 541 52 526 0 q 558 186 558 113 q 541 325 558 267 q 496 376 526 376 z "},"&":{"ha":1211,"x_min":33,"x_max":1201,"o":"m 1187 199 l 1201 194 q 1114 68 1163 122 q 949 -18 1035 -18 q 758 48 848 -18 q 653 146 710 84 q 564 46 605 77 q 368 -18 480 -18 q 240 8 302 -18 q 131 81 178 34 q 33 324 33 178 q 155 607 33 480 q 314 722 220 673 q 334 802 320 773 q 446 913 366 873 q 578 944 508 944 q 744 880 684 944 q 794 749 794 825 q 686 506 794 644 l 800 369 q 876 585 850 522 q 949 691 907 661 q 1027 717 985 717 q 1121 672 1086 717 q 1149 583 1149 635 q 1126 503 1149 536 q 1055 465 1098 465 q 968 511 1013 465 q 922 538 943 538 q 863 478 892 538 q 812 357 845 441 q 928 238 865 291 q 1103 155 1027 155 q 1187 199 1156 155 m 677 518 q 722 696 722 593 q 685 866 722 802 q 594 926 651 926 q 536 899 558 926 q 518 844 518 876 q 590 648 518 779 q 677 518 627 582 m 313 705 q 257 621 275 668 q 239 507 239 573 q 315 267 239 378 q 414 175 356 208 q 539 142 473 142 q 636 165 589 142 q 427 423 571 221 q 347 565 372 500 q 313 705 321 630 z "},"'":{"ha":333,"x_min":28,"x_max":305,"o":"m 181 555 l 152 555 l 28 926 l 305 926 l 181 555 z "},"(":{"ha":452,"x_min":28,"x_max":444,"o":"m 444 1019 l 444 1004 q 351 979 386 1003 q 273 838 294 939 q 257 621 257 764 l 257 217 q 273 -1 257 75 q 444 -167 311 -168 l 444 -180 q 298 -161 352 -177 q 106 -14 182 -123 q 44 126 58 56 q 28 300 28 197 l 28 538 q 75 799 29 711 q 275 990 144 937 q 444 1019 338 1015 z "},")":{"ha":452,"x_min":9,"x_max":425,"o":"m 9 -180 l 9 -167 q 102 -141 67 -165 q 180 -1 159 -101 q 196 217 196 75 l 196 621 q 180 838 196 764 q 9 1004 142 1006 l 9 1019 q 155 999 102 1015 q 347 852 271 962 q 409 712 395 782 q 425 538 425 641 l 425 300 q 378 39 424 127 q 178 -153 309 -98 q 9 -180 115 -177 z "},"*":{"ha":497,"x_min":9,"x_max":489,"o":"m 269 667 q 369 617 325 641 q 420 547 420 589 q 403 501 420 520 q 355 481 385 481 q 302 509 319 481 q 275 608 283 539 q 269 667 273 633 m 227 667 q 209 545 218 587 q 138 483 194 483 q 90 505 108 483 q 74 549 74 524 q 174 642 74 597 q 227 667 199 654 m 214 706 q 81 686 116 686 q 23 713 44 686 q 9 755 9 731 q 24 795 9 778 q 73 819 45 819 q 175 749 113 819 q 214 706 193 728 m 248 730 q 210 801 233 758 q 184 877 184 854 q 201 922 184 903 q 250 944 221 944 q 294 926 275 944 q 314 882 314 907 q 284 794 314 848 q 264 760 281 788 q 248 730 261 754 m 282 706 q 347 773 302 728 q 422 816 390 816 q 471 795 450 816 q 489 752 489 777 q 467 701 489 720 q 410 685 448 685 q 339 694 385 685 q 282 706 315 700 z "},"+":{"ha":768,"x_min":14,"x_max":754,"o":"m 370 449 l 14 449 l 14 477 l 370 477 l 370 833 l 398 833 l 398 477 l 754 477 l 754 449 l 398 449 l 398 93 l 370 93 l 370 449 z "},",":{"ha":322,"x_min":28,"x_max":295,"o":"m 124 -210 l 115 -201 q 164 -87 164 -138 q 157 -50 164 -64 q 117 -16 149 -32 q 52 28 66 12 q 28 101 28 58 q 62 189 28 151 q 161 231 102 231 q 258 187 220 231 q 295 80 295 144 q 227 -102 295 -7 q 124 -210 182 -165 z "},"-":{"ha":364,"x_min":0,"x_max":364,"o":"m 364 405 l 364 298 l 0 298 l 0 405 l 364 405 z "},".":{"ha":324,"x_min":28,"x_max":295,"o":"m 163 249 q 256 210 217 249 q 295 115 295 171 q 256 21 295 60 q 161 -18 217 -18 q 67 21 106 -18 q 28 115 28 60 q 67 210 28 172 q 163 249 107 249 z "},"/":{"ha":583,"x_min":-9,"x_max":592,"o":"m 555 926 l 592 926 l 28 0 l -9 0 l 555 926 z "},":":{"ha":361,"x_min":65,"x_max":332,"o":"m 200 672 q 293 633 254 672 q 332 538 332 594 q 293 444 332 483 q 199 405 254 405 q 104 444 143 405 q 65 538 65 483 q 104 633 65 595 q 200 672 144 672 m 200 249 q 293 210 254 249 q 332 115 332 171 q 293 21 332 60 q 199 -18 254 -18 q 104 21 143 -18 q 65 115 65 60 q 104 210 65 172 q 200 249 144 249 z "},";":{"ha":361,"x_min":64,"x_max":335,"o":"m 199 672 q 292 633 254 672 q 332 538 332 594 q 292 444 332 483 q 198 405 254 405 q 104 444 142 405 q 64 538 64 483 q 104 633 64 595 q 199 672 144 672 m 163 -211 l 154 -201 q 204 -87 204 -138 q 197 -50 204 -65 q 157 -16 188 -33 q 92 28 106 12 q 67 101 67 58 q 102 189 67 151 q 201 231 141 231 q 298 186 260 231 q 335 79 335 144 q 267 -103 335 -7 q 163 -211 222 -165 z "},"<":{"ha":694,"x_min":50,"x_max":644,"o":"m 644 901 l 644 788 l 356 612 l 644 413 l 644 112 l 50 524 l 50 538 l 644 901 z "},"=":{"ha":768,"x_min":14,"x_max":754,"o":"m 14 570 l 754 570 l 754 542 l 14 542 l 14 570 m 14 385 l 754 385 l 754 357 l 14 357 l 14 385 z "},">":{"ha":694,"x_min":51,"x_max":644,"o":"m 51 112 l 51 225 l 338 401 l 51 600 l 51 901 l 644 490 l 644 475 l 51 112 z "},"?":{"ha":792,"x_min":46,"x_max":769,"o":"m 420 298 q 398 283 408 283 q 374 302 382 283 q 367 334 367 318 q 406 434 367 367 q 465 563 448 505 q 490 714 490 646 q 441 866 490 806 q 393 904 423 890 q 332 918 363 918 q 267 899 292 918 q 241 846 241 881 q 274 751 241 814 q 296 671 296 709 q 264 586 296 620 q 168 547 228 547 q 77 588 111 547 q 46 677 46 625 q 109 827 46 758 q 243 918 161 886 q 398 945 315 945 q 649 886 532 945 q 738 812 706 857 q 769 715 769 768 q 674 551 769 619 q 528 470 639 525 q 420 404 456 435 q 385 340 385 373 q 395 311 385 321 q 420 298 400 304 m 409 249 q 501 210 463 249 q 541 115 541 171 q 501 21 541 60 q 407 -18 463 -18 q 313 21 351 -18 q 273 115 273 60 q 313 210 273 172 q 409 249 353 249 z "},"@":{"ha":1152,"x_min":33,"x_max":1120,"o":"m 858 705 l 796 378 q 787 304 787 328 q 831 239 787 239 q 894 266 867 239 q 970 399 940 311 q 1002 586 1002 492 q 897 829 1002 736 q 643 917 798 917 q 296 751 422 917 q 214 588 243 681 q 184 397 184 495 q 277 123 184 223 q 546 12 378 12 q 690 30 606 12 l 690 0 q 530 -18 600 -18 q 327 16 424 -18 q 160 113 229 51 q 33 416 33 228 q 82 632 33 530 q 222 809 132 735 q 410 909 300 873 q 637 945 519 945 q 849 911 751 945 q 1009 819 947 878 q 1120 555 1120 711 q 1006 294 1120 395 q 793 212 913 212 q 648 334 662 212 q 589 249 622 280 q 475 212 549 212 q 347 258 389 212 q 304 387 304 304 q 379 617 304 519 q 469 692 415 665 q 581 719 523 719 q 676 673 648 719 q 694 622 687 656 l 711 705 l 858 705 m 605 692 q 538 651 569 692 q 485 536 507 611 q 457 330 457 439 q 509 241 457 241 q 589 288 551 241 q 648 427 625 331 q 669 583 669 509 q 658 656 669 626 q 605 692 646 692 z "},"A":{"ha":1102,"x_min":-28,"x_max":1130,"o":"m 579 355 l 299 355 q 264 186 264 260 q 309 54 264 102 q 401 14 345 17 l 401 0 l -28 0 l -28 14 q 149 125 64 26 q 281 361 226 217 l 421 731 q 367 804 399 773 q 500 901 426 833 q 603 1009 556 953 q 675 823 641 905 l 854 391 q 996 92 972 114 q 1080 21 1034 37 q 1130 14 1099 16 l 1130 0 l 569 0 l 569 14 q 668 91 668 18 q 610 283 668 145 l 579 355 m 574 371 l 432 715 l 304 371 l 574 371 z "},"B":{"ha":982,"x_min":9,"x_max":955,"o":"m 567 513 q 811 460 740 493 q 955 262 955 394 q 932 166 955 212 q 868 90 909 121 q 529 0 751 0 l 9 0 l 9 14 q 114 53 88 18 q 137 133 133 78 q 139 238 139 153 l 139 688 q 132 831 139 793 q 78 900 121 884 q 9 912 53 909 l 9 926 l 374 926 q 634 912 544 926 q 835 831 766 892 q 893 709 893 780 q 859 611 893 653 q 762 545 825 568 q 567 513 694 520 m 412 518 l 449 518 q 547 530 515 518 q 612 612 589 547 q 627 713 627 652 q 581 870 627 824 q 523 903 558 895 q 446 909 495 909 l 412 909 l 412 518 m 412 502 l 412 164 q 425 50 412 79 q 498 16 440 16 q 635 94 597 16 q 663 259 663 153 q 614 452 663 398 q 542 495 585 484 q 456 502 513 502 l 412 502 z "},"C":{"ha":928,"x_min":33,"x_max":878,"o":"m 844 933 l 865 564 l 851 564 q 723 809 808 704 q 527 926 629 926 q 443 899 481 926 q 382 823 404 871 q 324 458 324 694 q 343 241 324 330 q 404 89 363 152 q 496 14 437 39 q 561 0 526 0 q 762 146 664 0 q 864 383 829 248 l 878 383 l 865 -14 l 851 -14 q 821 15 849 15 q 755 5 808 15 l 722 -1 q 552 -19 626 -19 q 357 16 452 -19 q 192 112 262 50 q 77 266 118 177 q 33 466 33 361 q 123 742 33 620 q 336 906 205 853 q 534 944 431 944 q 721 919 614 944 q 795 906 774 906 q 829 933 821 906 l 844 933 z "},"D":{"ha":1057,"x_min":9,"x_max":1025,"o":"m 139 238 l 139 688 q 132 831 139 794 q 78 900 121 884 q 9 912 53 909 l 9 926 l 492 926 q 893 787 750 926 q 1025 458 1025 657 q 877 119 1025 250 q 726 31 812 62 q 547 0 640 0 l 9 0 l 9 14 q 114 53 88 18 q 137 133 133 78 q 139 238 139 152 m 412 909 l 412 201 q 418 83 412 111 q 515 16 431 16 q 693 140 647 16 q 734 465 734 250 q 709 721 734 631 q 597 885 675 848 q 450 909 547 909 l 412 909 z "},"E":{"ha":960,"x_min":9,"x_max":946,"o":"m 412 909 l 412 482 q 586 545 516 489 q 663 686 652 600 l 676 686 l 676 258 l 663 258 q 574 410 644 348 q 477 460 532 448 q 412 467 456 465 l 412 138 q 429 43 412 66 q 494 16 448 16 q 754 128 625 16 q 932 395 874 232 l 946 395 l 883 0 l 9 0 l 9 14 q 114 53 88 18 q 137 133 133 78 q 139 238 139 152 l 139 688 q 132 831 139 794 q 78 900 121 884 q 9 912 53 909 l 9 926 l 828 926 l 884 607 l 870 607 q 728 810 825 721 q 452 909 616 909 l 412 909 z "},"F":{"ha":869,"x_min":9,"x_max":870,"o":"m 412 909 l 412 467 q 661 669 625 477 l 675 669 l 675 246 l 661 246 q 575 390 640 332 q 412 452 500 452 l 412 237 q 424 96 413 130 q 450 53 431 73 q 493 25 469 33 q 581 14 524 15 l 581 0 l 9 0 l 9 14 q 114 53 88 18 q 137 133 133 78 q 139 238 139 152 l 139 688 q 132 831 139 794 q 78 900 121 884 q 9 912 53 909 l 9 926 l 812 926 l 870 581 l 856 581 q 723 795 807 716 q 452 909 597 909 l 412 909 z "},"G":{"ha":1008,"x_min":33,"x_max":1017,"o":"m 848 934 l 863 572 l 850 572 q 744 806 809 715 q 555 926 659 926 q 470 899 510 926 q 406 825 431 873 q 324 408 324 669 q 381 85 324 194 q 528 0 425 0 q 631 53 607 0 q 650 187 650 98 l 650 286 q 637 372 650 350 q 587 416 621 404 q 538 427 572 422 l 538 441 l 1017 441 l 1017 427 q 969 418 984 425 q 923 357 937 401 q 914 247 914 332 l 914 0 l 901 0 q 854 44 887 44 q 787 28 837 44 q 507 -18 638 -18 q 169 128 310 -18 q 33 458 33 271 q 117 728 33 603 q 330 903 197 847 q 538 945 427 945 q 754 916 616 945 q 804 909 785 909 q 834 934 829 909 l 848 934 z "},"H":{"ha":1124,"x_min":9,"x_max":1116,"o":"m 412 497 l 713 497 l 713 726 q 709 818 713 789 q 694 867 705 847 q 611 912 671 905 l 611 926 l 1116 926 l 1116 912 q 1011 873 1037 907 q 988 793 992 848 q 986 688 986 774 l 986 238 q 993 94 986 132 q 1048 26 1004 41 q 1116 14 1072 17 l 1116 0 l 611 0 l 611 14 q 694 59 671 21 q 711 136 709 86 q 713 199 713 163 l 713 481 l 412 481 l 412 199 q 416 109 412 140 q 454 34 422 56 q 514 14 474 20 l 514 0 l 9 0 l 9 14 q 114 53 88 18 q 137 133 133 78 q 139 238 139 152 l 139 688 q 132 831 139 794 q 78 900 121 884 q 9 912 53 909 l 9 926 l 514 926 l 514 912 q 431 867 454 905 q 414 790 416 840 q 412 726 412 766 l 412 497 z "},"I":{"ha":551,"x_min":9,"x_max":542,"o":"m 139 238 l 139 688 q 132 831 139 793 q 78 900 121 884 q 9 912 53 909 l 9 926 l 542 926 l 542 912 q 437 873 463 907 q 414 793 419 848 q 412 688 412 773 l 412 238 q 419 94 412 132 q 473 26 430 41 q 542 14 498 17 l 542 0 l 9 0 l 9 14 q 114 53 88 18 q 137 133 133 78 q 139 238 139 153 z "},"J":{"ha":793,"x_min":-9,"x_max":802,"o":"m 673 688 l 673 342 q 668 215 673 252 q 650 151 664 179 q 485 16 606 64 q 306 -18 399 -18 q 80 46 171 -18 q 15 120 39 75 q -9 214 -9 166 q 26 307 -9 269 q 123 347 63 347 q 211 311 178 347 q 241 226 241 277 q 233 150 241 205 q 224 77 224 100 q 251 19 224 41 q 308 0 273 0 q 391 64 374 0 q 399 241 399 94 l 399 688 q 393 831 399 794 q 338 900 382 884 q 270 912 313 909 l 270 926 l 802 926 l 802 912 q 698 873 724 907 q 675 793 679 848 q 673 688 673 774 z "},"K":{"ha":1095,"x_min":9,"x_max":1142,"o":"m 701 0 l 412 469 l 412 238 q 419 94 412 132 q 473 26 430 41 q 542 14 498 17 l 542 0 l 9 0 l 9 14 q 114 53 88 18 q 137 133 133 78 q 139 238 139 153 l 139 688 q 132 831 139 793 q 78 900 121 884 q 9 912 53 909 l 9 926 l 542 926 l 542 912 q 437 873 463 907 q 414 793 418 848 q 412 688 412 774 l 412 479 q 557 640 469 537 q 637 755 614 707 q 665 859 665 809 q 639 912 665 896 l 639 926 l 1017 926 l 1017 912 q 779 809 902 888 q 589 653 664 733 l 787 355 q 912 172 886 208 q 1142 14 1014 22 l 1142 0 l 701 0 z "},"L":{"ha":931,"x_min":9,"x_max":941,"o":"m 941 416 l 858 0 l 9 0 l 9 14 q 114 53 88 18 q 137 133 133 78 q 139 238 139 152 l 139 688 q 132 831 139 794 q 78 900 121 884 q 9 912 53 909 l 9 926 l 542 926 l 542 912 q 437 873 463 907 q 414 793 419 848 q 412 688 412 773 l 412 174 q 426 56 412 86 q 515 16 444 16 q 789 163 660 16 q 926 416 876 262 l 941 416 z "},"M":{"ha":1351,"x_min":-28,"x_max":1341,"o":"m 705 342 l 936 926 l 1341 926 l 1341 912 q 1237 873 1263 907 q 1214 793 1219 848 q 1212 688 1212 774 l 1212 238 q 1219 94 1212 132 q 1274 26 1230 41 q 1341 14 1298 17 l 1341 0 l 809 0 l 809 14 q 913 53 888 18 q 937 133 932 78 q 939 238 939 153 l 939 886 l 572 -46 l 205 866 l 205 393 q 257 103 206 186 q 340 28 290 49 q 412 14 363 20 l 412 0 l -28 0 l -28 14 q 142 126 90 32 q 181 268 171 182 q 187 418 187 322 l 187 710 q 176 830 186 802 q 5 912 148 907 l 5 926 l 475 926 l 705 342 z "},"N":{"ha":1116,"x_min":-28,"x_max":1144,"o":"m 425 926 l 921 361 l 921 569 q 852 852 921 760 q 788 901 825 888 q 734 912 771 907 l 734 926 l 1144 926 l 1144 912 q 1058 888 1086 905 q 939 510 938 806 l 939 -46 l 206 789 l 206 393 q 258 103 208 182 q 340 28 291 49 q 412 14 363 19 l 412 0 l -28 0 l -28 14 q 142 126 89 31 q 180 267 171 181 q 188 418 188 334 l 188 669 q 184 762 188 733 q 168 812 180 791 q 60 898 137 869 q -27 912 23 911 l -27 926 l 425 926 z "},"O":{"ha":1074,"x_min":33,"x_max":1042,"o":"m 543 944 q 866 827 721 944 q 1042 463 1042 684 q 866 99 1042 242 q 537 -18 722 -18 q 208 99 353 -18 q 33 462 33 242 q 208 827 33 687 q 543 944 357 944 m 534 926 q 416 873 465 926 q 334 463 334 783 q 381 110 334 232 q 450 24 401 56 q 538 0 487 0 q 659 53 610 0 q 741 458 741 142 q 694 816 741 699 q 631 897 673 869 q 534 926 590 926 z "},"P":{"ha":945,"x_min":9,"x_max":927,"o":"m 412 398 l 412 238 q 420 94 412 132 q 482 26 432 42 q 559 14 511 17 l 559 0 l 9 0 l 9 14 q 114 53 88 18 q 137 133 133 78 q 139 238 139 153 l 139 688 q 132 831 139 793 q 78 900 121 884 q 9 912 53 909 l 9 926 l 484 926 q 791 865 671 926 q 901 762 863 829 q 927 663 927 716 q 857 506 927 573 q 658 413 786 437 q 452 398 581 398 l 412 398 m 412 414 l 448 414 q 590 465 551 414 q 635 667 635 525 q 593 852 635 790 q 450 909 553 909 l 412 909 l 412 414 z "},"Q":{"ha":1074,"x_min":33,"x_max":1042,"o":"m 456 -12 q 633 -73 521 -27 q 761 -121 731 -113 q 874 -140 824 -140 q 973 -109 935 -140 q 1019 -35 1000 -86 l 1033 -35 q 974 -214 1015 -149 q 763 -334 899 -334 q 591 -276 675 -334 q 473 -157 535 -237 q 393 -57 425 -95 q 324 -12 355 -12 q 288 -28 301 -12 q 277 -64 277 -43 q 279 -85 277 -67 q 280 -102 280 -93 q 261 -156 280 -138 q 211 -176 241 -176 q 165 -157 183 -176 q 149 -115 149 -140 q 195 -38 149 -70 q 340 4 258 4 q 410 -3 366 4 q 208 99 293 30 q 33 463 33 243 q 208 827 33 684 q 537 944 353 944 q 866 827 722 944 q 1042 463 1042 684 q 866 98 1042 241 q 537 -19 722 -19 q 456 -12 502 -19 m 534 926 q 416 873 465 926 q 334 463 334 783 q 380 110 334 232 q 450 24 401 56 q 537 0 487 0 q 659 53 610 0 q 741 458 741 142 q 694 816 741 699 q 631 897 672 869 q 534 926 589 926 z "},"R":{"ha":1103,"x_min":9,"x_max":1149,"o":"m 412 460 l 412 238 q 419 94 412 132 q 474 26 430 41 q 542 14 498 17 l 542 0 l 9 0 l 9 14 q 114 53 88 18 q 137 133 133 78 q 139 238 139 153 l 139 688 q 132 831 139 793 q 78 900 121 884 q 9 912 53 909 l 9 926 l 399 926 q 710 898 613 926 q 883 796 825 865 q 928 680 928 743 q 871 558 928 610 q 687 486 810 503 q 790 450 755 473 q 888 320 837 418 l 966 168 q 1048 46 1017 72 q 1149 14 1079 20 l 1149 0 l 742 0 q 587 342 650 221 q 527 427 553 404 q 437 460 492 460 l 412 460 m 412 477 l 452 477 q 594 530 553 477 q 637 693 637 585 q 594 857 637 799 q 536 899 571 888 q 452 909 502 909 l 412 909 l 412 477 z "},"S":{"ha":859,"x_min":37,"x_max":821,"o":"m 737 587 l 724 587 q 608 807 680 718 q 391 926 511 926 q 287 891 326 926 q 243 792 243 854 q 292 688 243 726 q 464 602 345 647 l 593 552 q 753 457 699 511 q 821 289 821 388 q 797 175 821 231 q 730 77 773 119 q 481 -18 634 -18 q 180 22 365 -18 q 110 34 129 34 q 65 0 73 34 l 51 0 l 37 429 l 51 429 q 219 136 98 274 q 344 28 287 58 q 468 0 399 0 q 577 37 536 0 q 624 141 624 77 q 569 254 624 210 q 428 330 518 296 l 292 383 q 101 494 167 432 q 40 641 40 552 q 133 848 40 760 q 401 945 237 945 q 522 932 456 945 q 612 912 537 929 q 675 903 654 903 q 707 934 702 903 l 722 934 l 737 587 z "},"T":{"ha":939,"x_min":0,"x_max":939,"o":"m 608 912 l 608 238 q 616 94 608 132 q 678 26 628 42 q 755 14 706 17 l 755 0 l 188 0 l 188 14 q 307 53 277 18 q 333 133 328 78 q 335 238 335 152 l 335 912 q 126 800 229 893 q 14 644 50 727 l 0 644 l 41 968 q 113 931 73 937 q 244 926 149 926 l 712 926 q 832 932 793 926 q 902 968 867 938 l 939 644 l 925 644 q 786 827 886 745 q 608 912 695 897 z "},"U":{"ha":1046,"x_min":0,"x_max":1074,"o":"m 1074 926 l 1074 912 q 991 870 1023 902 q 919 710 942 820 q 895 422 895 601 l 895 316 q 865 131 895 191 q 541 -18 788 -18 q 228 59 341 -18 q 144 172 163 103 q 130 320 130 226 l 130 688 q 123 831 130 793 q 68 900 112 884 q 0 912 43 909 l 0 926 l 523 926 l 523 912 q 426 873 450 907 q 405 793 409 848 q 403 688 403 772 l 403 364 q 413 183 403 233 q 500 58 430 96 q 631 28 557 28 q 834 117 773 28 q 871 212 862 158 q 877 316 877 245 l 877 444 q 843 775 878 654 q 776 885 821 850 q 722 912 756 899 l 722 926 l 1074 926 z "},"V":{"ha":1088,"x_min":-28,"x_max":1116,"o":"m 664 266 l 730 411 q 806 593 791 546 q 827 730 827 663 q 800 857 827 808 q 730 912 778 897 l 730 926 l 1116 926 l 1116 912 q 1024 859 1060 888 q 809 529 922 766 l 534 -47 l 176 690 q 77 853 120 803 q -28 912 38 895 l -28 926 l 504 926 l 504 912 q 439 884 456 904 q 422 829 422 863 q 451 729 422 795 q 504 615 464 699 l 664 266 z "},"W":{"ha":1565,"x_min":-28,"x_max":1593,"o":"m 655 292 l 796 578 l 714 770 q 646 884 677 855 q 579 912 624 906 l 579 926 l 1082 926 l 1082 912 q 1007 831 1007 901 q 1036 726 1007 794 l 1208 313 l 1244 385 q 1353 752 1353 608 q 1318 874 1353 833 q 1245 912 1296 900 l 1245 926 l 1593 926 l 1593 912 q 1504 852 1540 892 q 1403 688 1451 789 l 1064 -47 l 804 554 l 507 -47 l 176 690 q 77 854 127 796 q -28 912 40 895 l -28 926 l 481 926 l 481 912 q 425 843 425 890 q 438 790 425 819 l 655 292 z "},"X":{"ha":1104,"x_min":-23,"x_max":1127,"o":"m 640 573 l 920 180 q 1033 51 986 88 q 1127 14 1074 20 l 1127 0 l 578 0 l 578 14 q 642 73 642 28 q 612 155 642 107 q 549 249 593 189 l 445 393 q 343 149 343 269 q 370 49 343 83 q 443 14 391 23 l 443 0 l -4 0 l -4 14 q 106 66 52 30 q 341 289 214 139 q 435 408 387 343 l 279 623 q 165 780 185 753 q 114 840 144 806 q 52 889 83 873 q -23 912 22 905 l -23 926 l 557 926 l 557 912 q 509 899 524 905 q 477 850 477 884 q 505 769 477 819 q 587 646 517 748 l 627 587 q 721 814 721 710 q 705 879 721 854 q 665 912 694 897 l 665 926 l 1039 926 l 1039 912 q 920 863 975 897 q 720 677 818 799 q 640 573 685 634 z "},"Y":{"ha":1052,"x_min":-28,"x_max":1080,"o":"m 657 435 l 657 238 q 664 94 657 132 q 718 26 675 41 q 787 14 743 17 l 787 0 l 254 0 l 254 14 q 359 53 333 18 q 382 133 378 78 q 384 238 384 153 l 384 376 l 155 755 q 62 876 103 841 q -28 912 28 903 l -28 926 l 511 926 l 511 912 q 437 844 437 903 q 488 713 437 797 l 646 451 l 693 527 q 787 795 787 679 q 768 880 787 849 q 726 912 755 903 l 726 926 l 1080 926 l 1080 912 q 994 876 1029 898 q 844 719 936 836 q 727 552 774 631 l 657 435 z "},"Z":{"ha":926,"x_min":18,"x_max":908,"o":"m 908 926 l 341 16 q 506 45 430 18 q 651 130 576 71 q 787 269 725 189 q 874 416 842 339 l 888 416 l 810 0 l 18 0 l 582 909 q 418 872 494 904 q 280 789 350 843 q 155 669 211 735 q 79 551 111 616 l 66 551 l 155 926 l 908 926 z "},"[":{"ha":419,"x_min":33,"x_max":410,"o":"m 33 1019 l 410 1019 l 410 993 l 262 993 l 262 -155 l 410 -155 l 410 -180 l 33 -180 l 33 1019 z "},"\\":{"ha":583,"x_min":-9,"x_max":592,"o":"m 28 926 l 592 0 l 555 0 l -9 926 l 28 926 z "},"]":{"ha":419,"x_min":9,"x_max":387,"o":"m 387 -180 l 9 -180 l 9 -155 l 158 -155 l 158 993 l 9 993 l 9 1019 l 387 1019 l 387 -180 z "},"^":{"ha":694,"x_min":-47,"x_max":742,"o":"m 742 379 l 629 379 l 453 667 l 254 379 l -47 379 l 364 972 l 378 972 l 742 379 z "},"_":{"ha":694,"x_min":-2,"x_max":697,"o":"m -2 -130 l 697 -130 l 697 -266 l -2 -266 l -2 -130 z "},"`":{"ha":694,"x_min":134,"x_max":433,"o":"m 433 775 l 420 762 l 352 800 q 248 840 313 821 q 165 878 191 858 q 134 940 134 903 q 157 998 134 974 q 212 1021 179 1021 q 284 985 252 1021 q 335 905 303 964 q 374 849 349 881 l 433 775 z "},"a":{"ha":841,"x_min":37,"x_max":855,"o":"m 846 103 l 855 92 q 773 31 808 54 q 623 -19 696 -19 q 485 113 511 -19 q 402 28 444 56 q 235 -18 331 -18 q 79 36 136 -18 q 37 134 37 76 q 100 254 37 203 q 484 412 191 327 l 484 485 q 466 642 484 612 q 403 677 444 677 q 308 622 336 677 q 283 500 294 595 q 243 405 275 439 q 136 357 199 357 q 66 385 93 357 q 39 454 39 412 q 158 607 39 538 q 328 677 227 646 q 554 713 448 713 q 676 675 629 713 q 718 614 708 648 q 730 521 730 577 l 730 201 q 739 113 730 134 q 791 84 752 84 q 846 103 813 84 m 484 396 q 385 351 417 374 q 320 205 320 306 q 401 77 320 77 q 460 104 436 77 q 484 181 484 130 l 484 396 z "},"b":{"ha":862,"x_min":-9,"x_max":829,"o":"m 356 631 q 559 713 454 713 q 756 615 680 713 q 829 386 829 522 q 730 108 829 219 q 601 15 677 49 q 443 -18 524 -18 q 296 7 374 -18 q 229 29 292 8 q 187 39 201 39 q 124 -18 140 39 l 111 -18 l 111 748 q 102 855 110 822 q -8 934 79 932 l -9 948 q 356 1046 216 996 l 356 631 m 356 608 l 356 151 q 375 35 356 68 q 440 0 395 0 q 570 333 570 0 q 534 587 570 507 q 439 647 506 647 q 356 608 396 647 z "},"c":{"ha":753,"x_min":33,"x_max":734,"o":"m 718 254 l 734 245 q 386 -18 618 -18 q 138 75 235 -18 q 60 196 88 123 q 33 336 33 265 q 65 488 33 415 q 155 613 97 560 q 422 713 265 713 q 636 640 553 713 q 713 483 713 571 q 685 400 713 435 q 600 360 653 360 q 511 400 544 360 q 483 481 483 433 q 496 551 483 507 q 508 612 508 589 q 486 669 508 646 q 423 694 460 694 q 318 621 359 694 q 273 435 273 541 q 334 239 273 313 q 510 160 399 160 q 718 254 627 160 z "},"d":{"ha":853,"x_min":32,"x_max":844,"o":"m 496 -18 l 496 93 q 284 -18 398 -18 q 131 43 197 -18 q 52 172 78 92 q 32 304 32 233 q 154 605 32 485 q 410 713 264 713 q 496 694 450 713 l 496 748 q 488 855 496 822 q 378 934 465 932 l 376 948 q 742 1046 587 991 l 742 270 q 758 142 743 170 q 803 108 771 117 q 844 102 815 104 l 844 88 q 496 -18 679 43 m 496 116 l 496 616 q 473 677 496 658 q 427 694 454 694 q 374 676 398 694 q 335 626 349 658 q 291 343 291 529 q 315 144 291 211 q 412 69 342 69 q 472 92 446 69 q 496 116 481 99 z "},"e":{"ha":784,"x_min":33,"x_max":756,"o":"m 751 414 l 290 414 q 522 155 292 155 q 671 197 609 155 q 743 277 708 224 l 756 271 q 665 103 715 165 q 399 -18 566 -18 q 131 91 237 -18 q 33 338 33 192 q 161 621 33 511 q 410 712 268 712 q 603 659 517 712 q 728 509 690 603 q 751 414 743 473 m 504 431 q 494 598 504 549 q 408 693 475 693 q 302 566 329 693 q 290 431 290 507 l 504 431 z "},"f":{"ha":614,"x_min":9,"x_max":726,"o":"m 519 695 l 482 630 l 366 630 l 366 178 q 372 77 366 106 q 414 24 380 37 q 493 14 437 15 l 493 0 l 9 0 l 9 14 q 100 44 78 16 q 119 108 115 64 q 121 178 121 124 l 121 630 l 40 630 l 198 831 q 356 1001 296 955 q 480 1037 404 1037 q 644 994 577 1037 q 726 859 726 940 q 698 788 726 817 q 618 757 667 757 q 545 780 577 757 q 503 852 511 804 q 497 917 499 871 q 484 992 494 974 q 444 1017 470 1017 q 387 980 410 1017 q 366 880 366 947 l 366 695 l 519 695 z "},"g":{"ha":775,"x_min":33,"x_max":784,"o":"m 209 347 q 178 294 178 323 q 221 233 178 248 q 343 219 258 219 q 435 222 375 219 q 529 226 491 226 q 705 174 637 226 q 784 24 784 115 q 758 -71 784 -22 q 688 -152 731 -119 q 536 -224 625 -199 q 348 -250 448 -250 q 140 -221 232 -250 q 67 -177 94 -206 q 40 -113 40 -149 q 184 16 40 -34 q 88 56 123 30 q 33 158 33 98 q 193 353 33 267 q 114 395 141 370 q 60 509 60 442 q 117 623 60 570 q 376 713 205 703 q 376 739 376 730 q 408 880 376 826 q 547 958 456 958 q 635 926 600 958 q 672 844 672 892 q 646 769 672 799 q 574 736 618 736 q 492 779 532 736 q 438 814 457 814 q 391 726 391 814 q 391 713 391 722 l 404 713 q 573 674 494 712 q 693 525 693 616 q 672 451 693 488 q 615 389 650 414 q 374 321 517 321 q 209 347 293 321 m 372 694 q 288 530 288 694 q 311 383 288 432 q 381 339 331 339 q 450 382 431 339 q 467 505 467 422 q 372 694 467 694 m 216 12 q 175 -66 175 -16 q 260 -190 175 -147 q 425 -225 331 -225 q 578 -186 520 -225 q 633 -93 633 -150 q 591 -17 633 -43 q 481 8 550 8 q 401 5 453 8 q 326 2 353 2 q 216 12 279 2 z "},"h":{"ha":908,"x_min":0,"x_max":880,"o":"m 366 574 q 467 651 426 624 q 645 713 559 713 q 760 665 722 713 q 790 602 783 637 q 797 518 797 566 l 797 151 q 799 77 798 96 q 880 14 805 18 l 880 0 l 486 0 l 486 14 q 543 47 530 17 q 551 151 551 68 l 551 482 q 534 573 551 548 q 474 604 511 604 q 366 551 427 604 l 366 151 q 374 47 366 68 q 431 14 387 17 l 431 0 l 9 0 l 9 14 q 100 44 77 16 q 118 108 115 64 q 120 178 120 124 l 120 748 q 111 855 119 822 q 1 934 88 932 l 0 948 q 366 1046 208 991 l 366 574 z "},"i":{"ha":477,"x_min":0,"x_max":467,"o":"m 1 591 l 0 606 q 366 713 224 657 l 366 178 q 371 77 366 106 q 409 24 378 37 q 467 14 429 16 l 467 0 l 18 0 l 18 14 q 102 44 81 16 q 119 108 115 64 q 120 178 120 125 l 120 406 q 111 513 119 479 q 1 591 88 590 m 228 1052 q 330 1008 288 1052 q 374 905 374 966 q 330 800 374 843 q 227 757 288 757 q 122 800 165 757 q 79 904 79 844 q 122 1008 79 966 q 228 1052 166 1052 z "},"j":{"ha":477,"x_min":-227,"x_max":366,"o":"m 1 591 l 0 606 q 184 654 73 622 q 366 713 293 685 l 366 56 q 335 -125 366 -73 q 202 -238 292 -197 q 30 -273 123 -273 q -138 -241 -65 -273 q -203 -189 -180 -222 q -227 -117 -227 -157 q -198 -47 -227 -75 q -117 -18 -168 -18 q -33 -56 -65 -18 q -5 -134 -5 -88 q -6 -162 -5 -146 q -7 -189 -7 -178 q 7 -236 -7 -220 q 54 -255 24 -255 q 87 -246 71 -255 q 109 -222 102 -237 q 120 -121 120 -198 l 120 406 q 111 513 120 479 q 1 591 88 590 m 228 1052 q 323 1011 283 1052 q 364 913 364 971 q 323 816 364 857 q 226 775 283 775 q 128 816 168 775 q 87 913 87 857 q 128 1011 87 972 q 228 1052 170 1052 z "},"k":{"ha":930,"x_min":0,"x_max":958,"o":"m 366 391 l 454 481 q 547 637 547 577 q 526 681 547 665 l 526 694 l 824 694 l 824 681 q 667 624 758 667 q 526 537 591 586 l 791 155 q 880 46 844 79 q 924 19 904 25 q 958 14 932 16 l 958 0 l 593 0 l 366 378 l 366 178 q 371 77 366 107 q 409 24 378 37 q 467 14 429 16 l 467 0 l 9 0 l 9 14 q 100 44 77 16 q 118 108 115 64 q 120 178 120 124 l 120 748 q 111 855 119 822 q 1 934 88 932 l 0 948 q 366 1046 233 997 l 366 391 z "},"l":{"ha":477,"x_min":0,"x_max":467,"o":"m 1 934 l 0 948 q 366 1046 225 996 l 366 178 q 371 77 366 107 q 409 24 378 37 q 467 14 429 16 l 467 0 l 18 0 l 18 14 q 102 44 81 16 q 119 108 115 64 q 120 178 120 124 l 120 748 q 111 855 119 822 q 1 934 88 932 z "},"m":{"ha":1327,"x_min":0,"x_max":1299,"o":"m 366 581 q 497 679 429 645 q 628 713 564 713 q 754 666 708 713 q 792 581 781 638 q 878 652 842 628 q 1056 713 967 713 q 1171 667 1126 713 q 1216 516 1216 622 l 1216 151 q 1218 77 1217 96 q 1299 14 1224 18 l 1299 0 l 905 0 l 905 14 q 962 47 949 17 q 970 151 970 68 l 970 467 q 954 580 970 554 q 895 611 935 611 q 792 560 848 611 l 792 151 q 800 47 793 68 q 857 14 814 17 l 857 0 l 481 0 l 481 14 q 538 47 525 17 q 547 151 547 68 l 547 467 q 529 577 547 548 q 465 610 509 610 q 366 560 419 610 l 366 151 q 374 47 366 68 q 431 14 387 17 l 431 0 l 9 0 l 9 14 q 100 44 77 16 q 118 108 115 64 q 120 178 120 124 l 120 406 q 111 513 119 479 q 1 591 88 590 l 0 606 q 366 713 161 643 l 366 581 z "},"n":{"ha":904,"x_min":0,"x_max":876,"o":"m 366 581 q 446 653 410 626 q 619 713 526 713 q 761 654 718 713 q 793 509 793 611 l 793 151 q 795 77 793 96 q 876 14 801 18 l 876 0 l 482 0 l 482 14 q 539 47 526 17 q 547 151 547 68 l 547 413 q 543 543 547 517 q 511 595 536 579 q 471 608 492 608 q 366 559 422 608 l 366 151 q 374 47 366 68 q 431 14 387 17 l 431 0 l 9 0 l 9 14 q 100 44 77 16 q 118 108 115 64 q 120 178 120 124 l 120 406 q 111 513 119 479 q 1 591 88 590 l 0 606 q 366 713 178 646 l 366 581 z "},"o":{"ha":832,"x_min":33,"x_max":800,"o":"m 421 713 q 673 621 564 713 q 800 347 800 513 q 673 74 800 182 q 416 -18 564 -18 q 159 74 269 -18 q 33 347 33 182 q 159 621 33 515 q 421 713 271 713 m 414 694 q 340 650 368 694 q 301 347 301 588 q 323 82 301 172 q 358 22 334 44 q 416 0 383 0 q 493 45 465 0 q 532 342 532 106 q 509 612 532 527 q 414 694 488 694 z "},"p":{"ha":854,"x_min":-18,"x_max":822,"o":"m 357 622 q 565 713 463 713 q 768 595 696 713 q 822 382 822 506 q 721 92 822 206 q 493 -18 624 -18 q 357 31 421 -18 l 357 -96 q 363 -196 357 -167 q 408 -250 372 -237 q 477 -260 432 -258 l 477 -273 l -18 -273 l -18 -260 q 86 -220 60 -255 q 109 -140 105 -195 q 111 -35 111 -121 l 111 406 q 102 513 111 479 q -7 591 79 590 l -9 606 q 176 654 67 623 q 357 713 282 685 l 357 622 m 357 54 q 425 24 386 24 q 529 111 496 24 q 563 334 563 203 q 526 564 563 475 q 474 625 509 605 q 439 634 458 634 q 357 601 408 634 l 357 54 z "},"q":{"ha":850,"x_min":33,"x_max":851,"o":"m 726 713 l 740 713 l 740 -96 q 744 -186 740 -159 q 760 -229 748 -214 q 851 -260 783 -257 l 851 -273 l 374 -273 l 374 -260 q 473 -229 448 -257 q 492 -165 489 -210 q 494 -96 494 -150 l 494 68 q 425 12 454 28 q 301 -18 372 -18 q 98 73 174 -18 q 33 274 33 152 q 68 453 33 367 q 168 602 103 538 q 423 713 279 713 q 612 678 481 713 q 677 665 659 665 q 726 713 707 665 m 494 92 l 494 522 q 479 667 494 636 q 429 694 465 694 q 348 648 382 694 q 304 509 319 608 q 292 334 292 428 q 412 49 292 49 q 494 92 453 49 z "},"r":{"ha":671,"x_min":0,"x_max":690,"o":"m 356 499 q 564 713 426 713 q 654 677 616 713 q 690 591 690 642 q 663 513 690 546 q 583 475 632 475 q 517 498 545 475 q 477 547 506 508 q 434 574 456 574 q 391 545 408 574 q 370 481 374 515 q 366 351 366 435 l 366 178 q 371 77 366 106 q 413 24 379 37 q 477 14 435 16 l 477 0 l 9 0 l 9 14 q 100 44 77 16 q 118 108 115 64 q 120 178 120 124 l 120 406 q 111 513 119 479 q 1 591 88 590 l 0 606 q 185 654 116 633 q 356 713 243 671 l 356 499 z "},"s":{"ha":709,"x_min":56,"x_max":686,"o":"m 604 673 l 618 444 l 604 444 q 516 590 572 523 q 345 694 429 694 q 279 668 308 694 q 250 601 250 641 q 380 475 250 518 l 475 444 q 626 368 573 412 q 686 233 686 317 q 660 126 686 176 q 589 45 634 76 q 377 -18 499 -18 q 69 55 268 -18 l 56 332 l 69 332 q 190 130 121 211 q 403 0 299 0 q 481 32 452 0 q 505 100 505 57 q 478 173 505 146 q 375 229 448 202 l 307 254 q 125 346 186 297 q 60 485 60 399 q 155 655 60 589 q 358 713 239 713 q 604 673 459 713 z "},"t":{"ha":531,"x_min":-60,"x_max":559,"o":"m 357 694 l 532 694 l 497 629 l 357 629 l 357 229 q 380 120 357 151 q 471 81 409 81 q 552 97 506 81 l 559 85 q 473 29 511 51 q 311 -18 388 -18 q 173 26 227 -18 q 124 99 136 58 q 111 214 111 144 l 111 629 l -60 629 q 183 783 62 682 q 357 976 284 870 l 357 694 z "},"u":{"ha":897,"x_min":5,"x_max":886,"o":"m 540 -18 l 540 112 q 449 37 480 58 q 276 -18 365 -18 q 198 -2 236 -18 q 141 42 161 15 q 111 186 111 83 l 111 496 q 107 578 111 556 q 65 648 96 631 q 5 661 45 658 l 5 674 q 172 688 75 677 q 357 713 269 699 l 357 210 q 372 118 357 142 q 439 83 392 83 q 540 134 488 83 l 540 496 q 535 578 540 556 q 494 648 525 631 q 434 661 474 658 l 434 674 q 601 688 503 677 q 785 713 698 699 l 785 253 q 795 156 786 177 q 886 95 817 100 l 886 81 q 765 53 821 68 q 582 -5 731 43 l 540 -18 z "},"v":{"ha":802,"x_min":-28,"x_max":830,"o":"m 523 257 l 555 325 q 614 549 614 445 q 603 632 614 596 q 565 681 595 659 l 565 694 l 830 694 l 830 681 q 618 414 734 652 l 399 -37 l 116 536 q 49 642 78 614 q -28 681 23 666 l -28 694 l 426 694 l 426 681 q 364 623 364 669 q 400 515 364 591 l 523 257 z "},"w":{"ha":1314,"x_min":-28,"x_max":1342,"o":"m 527 264 l 633 492 q 562 631 589 594 q 519 671 541 662 q 479 681 506 677 l 479 694 l 917 694 l 917 681 q 858 623 858 672 q 878 549 858 597 q 917 460 887 526 l 1006 264 q 1060 384 1044 346 q 1101 564 1101 479 q 1079 650 1101 620 q 1028 681 1065 669 l 1028 694 l 1342 694 l 1342 681 q 1068 354 1209 648 l 882 -37 l 644 473 l 405 -37 l 135 513 q 71 627 90 605 q 10 675 41 664 q -28 681 -3 679 l -28 694 l 402 694 l 402 681 q 363 638 363 675 q 393 543 363 608 l 527 264 z "},"x":{"ha":884,"x_min":-28,"x_max":911,"o":"m 534 452 l 751 151 q 833 47 810 68 q 911 14 859 25 l 911 0 l 427 0 l 427 14 q 488 79 488 32 q 473 128 488 99 q 427 198 467 141 l 359 298 q 303 214 321 249 q 272 95 272 154 q 317 14 272 38 l 317 0 l -28 0 l -28 14 q 85 68 33 31 q 242 203 144 111 q 347 313 298 257 l 172 551 q 78 653 116 625 q 10 681 47 675 l 10 694 l 453 694 l 453 681 q 421 639 421 668 q 471 540 421 610 l 523 467 q 568 524 552 500 q 597 610 597 566 q 559 681 597 660 l 559 694 l 844 694 l 844 681 q 698 600 786 664 q 534 452 606 530 z "},"y":{"ha":825,"x_min":-35,"x_max":853,"o":"m 525 258 q 585 385 564 334 q 625 555 625 475 q 602 643 625 612 q 538 681 583 669 l 538 694 l 853 694 l 853 681 q 755 621 798 667 q 621 410 689 546 l 376 -84 q 127 -292 273 -292 q 9 -252 57 -292 q -35 -152 -35 -216 q -1 -66 -35 -100 q 87 -31 35 -31 q 155 -51 127 -31 q 202 -98 176 -64 q 269 -146 239 -146 q 350 -92 315 -146 q 392 -13 363 -70 l 115 549 q 73 628 83 614 q 18 672 47 661 q -28 681 3 677 l -28 694 l 427 694 l 427 681 q 366 621 366 676 q 396 522 366 583 l 525 258 z "},"z":{"ha":787,"x_min":18,"x_max":749,"o":"m 736 694 l 312 16 q 568 134 430 20 q 736 344 663 216 l 749 340 l 645 -28 q 595 -5 614 -9 q 522 0 573 0 l 18 0 l 445 678 q 209 575 336 662 q 62 408 116 509 l 48 411 l 141 734 q 168 704 153 711 q 233 694 187 694 l 736 694 z "},"{":{"ha":403,"x_min":-18,"x_max":394,"o":"m -18 427 l -18 451 q 39 471 20 454 q 61 503 55 484 q 68 574 68 526 q 67 635 68 613 q 66 720 66 713 q 77 867 66 783 q 137 985 88 946 q 235 1019 180 1019 l 394 1019 l 394 993 q 320 972 344 991 q 272 833 277 936 q 271 643 271 820 q 267 545 271 566 q 102 441 243 458 l 102 437 q 224 387 180 428 q 267 295 261 353 q 268 197 267 279 l 269 100 q 273 -49 269 -10 q 309 -130 281 -106 q 394 -155 337 -155 l 394 -180 l 222 -180 q 157 -163 190 -180 q 102 -119 123 -146 q 62 44 62 -68 q 65 226 62 68 q 66 311 66 292 q 32 412 66 387 q -18 427 17 424 z "},"|":{"ha":694,"x_min":256,"x_max":439,"o":"m 256 926 l 439 926 l 439 -231 l 256 -231 l 256 926 z "},"}":{"ha":403,"x_min":9,"x_max":422,"o":"m 422 451 l 422 427 q 366 408 382 423 q 337 311 337 380 q 340 114 337 287 q 341 44 341 64 q 301 -119 341 -68 q 247 -163 280 -146 q 182 -180 214 -180 l 9 -180 l 9 -155 q 77 -142 54 -155 q 130 -49 119 -121 q 135 100 135 -12 l 136 197 q 143 330 136 298 q 232 420 159 391 q 302 437 262 432 l 302 441 q 155 507 199 454 q 132 602 132 539 q 132 741 132 627 q 125 891 132 846 q 90 968 116 945 q 9 993 63 991 l 9 1019 l 169 1019 q 267 985 224 1019 q 326 867 315 946 q 338 723 338 782 q 336 635 338 713 q 336 574 336 613 q 348 491 336 513 q 422 451 367 456 z "},"~":{"ha":926,"x_min":203,"x_max":723,"o":"m 683 1019 l 723 994 q 645 876 695 937 q 607 842 624 851 q 538 826 579 826 q 483 836 513 826 q 414 862 465 842 q 334 878 372 878 q 273 857 298 878 q 241 827 272 857 l 203 850 q 286 975 253 943 q 380 1020 332 1020 q 484 994 412 1020 q 594 967 559 967 q 683 1019 640 967 z "},"Ä":{"ha":1102,"x_min":-28,"x_max":1130,"o":"m 579 355 l 299 355 q 264 186 264 260 q 309 54 264 102 q 401 14 345 17 l 401 0 l -28 0 l -28 14 q 149 125 64 26 q 281 361 226 217 l 421 731 q 367 804 399 773 q 500 901 426 833 q 603 1009 556 953 q 675 823 641 905 l 854 391 q 996 92 972 114 q 1080 21 1034 37 q 1130 14 1099 16 l 1130 0 l 569 0 l 569 14 q 668 91 668 18 q 610 283 668 145 l 579 355 m 574 371 l 432 715 l 304 371 l 574 371 m 388 1252 q 473 1217 437 1252 q 508 1131 508 1181 q 473 1044 508 1080 q 387 1008 437 1008 q 300 1044 336 1008 q 264 1130 264 1080 q 300 1217 264 1181 q 388 1252 336 1252 m 716 1252 q 801 1217 765 1252 q 836 1131 836 1181 q 801 1044 836 1080 q 715 1008 765 1008 q 629 1044 664 1008 q 593 1130 593 1080 q 629 1217 593 1181 q 716 1252 665 1252 z "},"Å":{"ha":1102,"x_min":-28,"x_max":1130,"o":"m 579 355 l 299 355 q 264 186 264 260 q 309 54 264 102 q 401 14 345 17 l 401 0 l -28 0 l -28 14 q 149 125 64 26 q 281 361 226 217 l 421 731 q 367 804 399 773 q 500 901 426 833 q 603 1009 556 953 q 675 823 641 905 l 854 391 q 996 92 972 114 q 1080 21 1034 37 q 1130 14 1099 16 l 1130 0 l 569 0 l 569 14 q 668 91 668 18 q 610 283 668 145 l 579 355 m 574 371 l 432 715 l 304 371 l 574 371 m 553 1299 q 647 1265 604 1299 q 698 1158 698 1223 q 647 1053 698 1094 q 551 1019 605 1019 q 456 1053 497 1019 q 404 1158 404 1095 q 456 1265 404 1224 q 553 1299 498 1299 m 550 1278 q 505 1250 518 1278 q 492 1158 492 1219 q 505 1067 492 1099 q 551 1039 517 1039 q 597 1067 584 1039 q 610 1158 610 1099 q 597 1250 610 1220 q 550 1278 584 1278 z "},"Ç":{"ha":928,"x_min":33,"x_max":878,"o":"m 511 -18 q 496 -60 505 -40 q 586 -93 553 -64 q 622 -176 622 -124 q 589 -261 622 -224 q 491 -304 550 -304 q 437 -293 462 -304 q 399 -248 399 -275 q 419 -229 399 -229 q 450 -253 436 -229 q 493 -284 467 -284 q 529 -267 515 -284 q 540 -231 540 -254 q 512 -173 540 -197 q 444 -149 485 -149 q 409 -152 431 -149 q 461 -83 439 -119 q 492 -16 483 -47 q 255 65 361 -1 q 94 231 153 128 q 33 466 33 340 q 123 742 33 620 q 336 906 205 853 q 534 944 431 944 q 721 919 614 944 q 795 906 774 906 q 829 933 821 906 l 844 933 l 865 564 l 851 564 q 723 809 808 704 q 527 926 629 926 q 443 899 481 926 q 382 823 404 871 q 324 458 324 694 q 343 241 324 330 q 404 89 363 152 q 496 14 437 39 q 561 0 526 0 q 762 146 664 0 q 864 383 829 248 l 878 383 l 865 -14 l 851 -14 q 821 15 849 15 q 755 5 808 15 l 722 -1 q 552 -19 626 -19 q 511 -18 534 -19 z "},"É":{"ha":960,"x_min":9,"x_max":946,"o":"m 412 909 l 412 482 q 586 545 516 489 q 663 686 652 600 l 676 686 l 676 258 l 663 258 q 574 410 644 348 q 477 460 532 448 q 412 467 456 465 l 412 138 q 429 43 412 66 q 494 16 448 16 q 754 128 625 16 q 932 395 874 232 l 946 395 l 883 0 l 9 0 l 9 14 q 114 53 88 18 q 137 133 133 78 q 139 238 139 152 l 139 688 q 132 831 139 794 q 78 900 121 884 q 9 912 53 909 l 9 926 l 828 926 l 884 607 l 870 607 q 728 810 825 721 q 452 909 616 909 l 412 909 m 394 1014 l 453 1088 q 511 1179 484 1127 q 615 1259 555 1259 q 671 1236 648 1259 q 694 1179 694 1212 q 663 1117 694 1141 q 579 1078 637 1097 q 475 1038 513 1059 l 408 1000 l 394 1014 z "},"Ñ":{"ha":1116,"x_min":-28,"x_max":1144,"o":"m 425 926 l 921 361 l 921 569 q 852 852 921 760 q 788 901 825 888 q 734 912 771 907 l 734 926 l 1144 926 l 1144 912 q 1058 888 1086 905 q 939 510 938 806 l 939 -46 l 206 789 l 206 393 q 258 103 208 182 q 340 28 291 49 q 412 14 363 19 l 412 0 l -28 0 l -28 14 q 142 126 89 31 q 180 267 171 181 q 188 418 188 334 l 188 669 q 184 762 188 733 q 168 812 180 791 q 60 898 137 869 q -27 912 23 911 l -27 926 l 425 926 m 798 1200 l 813 1200 q 772 1098 801 1137 q 671 1040 731 1040 q 533 1070 631 1040 q 391 1105 422 1105 q 319 1045 345 1105 l 304 1045 q 342 1155 313 1112 q 451 1219 385 1219 q 531 1205 483 1219 q 603 1183 539 1203 q 741 1152 702 1152 q 780 1170 765 1152 q 798 1200 787 1179 z "},"Ö":{"ha":1074,"x_min":33,"x_max":1042,"o":"m 543 944 q 866 827 721 944 q 1042 463 1042 684 q 866 99 1042 242 q 537 -18 722 -18 q 208 99 353 -18 q 33 462 33 242 q 208 827 33 687 q 543 944 357 944 m 534 926 q 416 873 465 926 q 334 463 334 783 q 381 110 334 232 q 450 24 401 56 q 538 0 487 0 q 659 53 610 0 q 741 458 741 142 q 694 816 741 699 q 631 897 673 869 q 534 926 590 926 m 374 1252 q 459 1217 423 1252 q 494 1131 494 1181 q 459 1044 494 1080 q 373 1008 423 1008 q 287 1044 322 1008 q 251 1130 251 1080 q 287 1217 251 1181 q 374 1252 323 1252 m 703 1252 q 787 1217 751 1252 q 823 1131 823 1181 q 787 1044 823 1080 q 701 1008 751 1008 q 615 1044 650 1008 q 579 1130 579 1080 q 615 1217 579 1181 q 703 1252 651 1252 z "},"Ü":{"ha":1046,"x_min":0,"x_max":1074,"o":"m 1074 926 l 1074 912 q 991 870 1023 902 q 919 710 942 820 q 895 422 895 601 l 895 316 q 865 131 895 191 q 541 -18 788 -18 q 228 59 341 -18 q 144 172 163 103 q 130 320 130 226 l 130 688 q 123 831 130 793 q 68 900 112 884 q 0 912 43 909 l 0 926 l 523 926 l 523 912 q 426 873 450 907 q 405 793 409 848 q 403 688 403 772 l 403 364 q 413 183 403 233 q 500 58 430 96 q 631 28 557 28 q 834 117 773 28 q 871 212 862 158 q 877 316 877 245 l 877 444 q 843 775 878 654 q 776 885 821 850 q 722 912 756 899 l 722 926 l 1074 926 m 407 1252 q 492 1217 456 1252 q 527 1131 527 1181 q 492 1044 527 1080 q 406 1008 456 1008 q 319 1044 355 1008 q 283 1130 283 1080 q 319 1217 283 1181 q 407 1252 355 1252 m 735 1252 q 820 1217 784 1252 q 855 1131 855 1181 q 820 1044 855 1080 q 734 1008 784 1008 q 648 1044 683 1008 q 612 1130 612 1080 q 648 1217 612 1181 q 735 1252 684 1252 z "},"á":{"ha":841,"x_min":37,"x_max":855,"o":"m 846 103 l 855 92 q 773 31 808 54 q 623 -19 696 -19 q 485 113 511 -19 q 402 28 444 56 q 235 -18 331 -18 q 79 36 136 -18 q 37 134 37 76 q 100 254 37 203 q 484 412 191 327 l 484 485 q 466 642 484 612 q 403 677 444 677 q 308 622 336 677 q 283 500 294 595 q 243 405 275 439 q 136 357 199 357 q 66 385 93 357 q 39 454 39 412 q 158 607 39 538 q 328 677 227 646 q 554 713 448 713 q 676 675 629 713 q 718 614 708 648 q 730 521 730 577 l 730 201 q 739 113 730 134 q 791 84 752 84 q 846 103 813 84 m 484 396 q 385 351 417 374 q 320 205 320 306 q 401 77 320 77 q 460 104 436 77 q 484 181 484 130 l 484 396 m 335 775 l 394 849 q 452 941 425 889 q 556 1021 496 1021 q 612 998 589 1021 q 635 940 635 974 q 604 878 635 903 q 520 840 578 858 q 416 800 455 821 l 349 762 l 335 775 z "},"à":{"ha":841,"x_min":37,"x_max":855,"o":"m 846 103 l 855 92 q 773 31 808 54 q 623 -19 696 -19 q 485 113 511 -19 q 402 28 444 56 q 235 -18 331 -18 q 79 36 136 -18 q 37 134 37 76 q 100 254 37 203 q 484 412 191 327 l 484 485 q 466 642 484 612 q 403 677 444 677 q 308 622 336 677 q 283 500 294 595 q 243 405 275 439 q 136 357 199 357 q 66 385 93 357 q 39 454 39 412 q 158 607 39 538 q 328 677 227 646 q 554 713 448 713 q 676 675 629 713 q 718 614 708 648 q 730 521 730 577 l 730 201 q 739 113 730 134 q 791 84 752 84 q 846 103 813 84 m 484 396 q 385 351 417 374 q 320 205 320 306 q 401 77 320 77 q 460 104 436 77 q 484 181 484 130 l 484 396 m 507 775 l 493 762 l 425 800 q 321 840 387 821 q 238 878 264 858 q 207 940 207 903 q 230 998 207 974 q 286 1021 252 1021 q 357 985 326 1021 q 408 905 376 964 q 448 849 422 881 l 507 775 z "},"â":{"ha":841,"x_min":37,"x_max":855,"o":"m 846 103 l 855 92 q 773 31 808 54 q 623 -19 696 -19 q 485 113 511 -19 q 402 28 444 56 q 235 -18 331 -18 q 79 36 136 -18 q 37 134 37 76 q 100 254 37 203 q 484 412 191 327 l 484 485 q 466 642 484 612 q 403 677 444 677 q 308 622 336 677 q 283 500 294 595 q 243 405 275 439 q 136 357 199 357 q 66 385 93 357 q 39 454 39 412 q 158 607 39 538 q 328 677 227 646 q 554 713 448 713 q 676 675 629 713 q 718 614 708 648 q 730 521 730 577 l 730 201 q 739 113 730 134 q 791 84 752 84 q 846 103 813 84 m 484 396 q 385 351 417 374 q 320 205 320 306 q 401 77 320 77 q 460 104 436 77 q 484 181 484 130 l 484 396 m 652 817 l 643 806 l 420 878 l 199 806 l 189 817 l 378 994 l 463 994 l 652 817 z "},"ä":{"ha":841,"x_min":37,"x_max":855,"o":"m 846 103 l 855 92 q 773 31 808 54 q 623 -19 696 -19 q 485 113 511 -19 q 402 28 444 56 q 235 -18 331 -18 q 79 36 136 -18 q 37 134 37 76 q 100 254 37 203 q 484 412 191 327 l 484 485 q 466 642 484 612 q 403 677 444 677 q 308 622 336 677 q 283 500 294 595 q 243 405 275 439 q 136 357 199 357 q 66 385 93 357 q 39 454 39 412 q 158 607 39 538 q 328 677 227 646 q 554 713 448 713 q 676 675 629 713 q 718 614 708 648 q 730 521 730 577 l 730 201 q 739 113 730 134 q 791 84 752 84 q 846 103 813 84 m 484 396 q 385 351 417 374 q 320 205 320 306 q 401 77 320 77 q 460 104 436 77 q 484 181 484 130 l 484 396 m 272 1010 q 349 978 317 1010 q 381 900 381 946 q 349 822 381 854 q 271 789 316 789 q 193 822 224 789 q 160 900 160 854 q 193 978 160 946 q 272 1010 225 1010 m 570 1010 q 647 978 615 1010 q 680 900 680 946 q 647 822 680 854 q 569 789 614 789 q 491 822 524 789 q 458 900 458 854 q 491 978 458 947 q 570 1010 524 1010 z "},"ã":{"ha":841,"x_min":37,"x_max":855,"o":"m 846 103 l 855 92 q 773 31 808 54 q 623 -19 696 -19 q 485 113 511 -19 q 402 28 444 56 q 235 -18 331 -18 q 79 36 136 -18 q 37 134 37 76 q 100 254 37 203 q 484 412 191 327 l 484 485 q 466 642 484 612 q 403 677 444 677 q 308 622 336 677 q 283 500 294 595 q 243 405 275 439 q 136 357 199 357 q 66 385 93 357 q 39 454 39 412 q 158 607 39 538 q 328 677 227 646 q 554 713 448 713 q 676 675 629 713 q 718 614 708 648 q 730 521 730 577 l 730 201 q 739 113 730 134 q 791 84 752 84 q 846 103 813 84 m 484 396 q 385 351 417 374 q 320 205 320 306 q 401 77 320 77 q 460 104 436 77 q 484 181 484 130 l 484 396 m 638 968 l 652 968 q 615 866 641 905 q 523 809 578 809 q 433 827 490 809 q 355 854 419 832 q 269 873 296 873 q 203 814 227 873 l 189 814 q 224 923 198 880 q 323 987 263 987 q 395 973 352 987 q 461 951 404 971 q 587 920 551 920 q 622 938 608 920 q 638 968 629 947 z "},"å":{"ha":841,"x_min":37,"x_max":855,"o":"m 846 103 l 855 92 q 773 31 808 54 q 623 -19 696 -19 q 485 113 511 -19 q 402 28 444 56 q 235 -18 331 -18 q 79 36 136 -18 q 37 134 37 76 q 100 254 37 203 q 484 412 191 327 l 484 485 q 466 642 484 612 q 403 677 444 677 q 308 622 336 677 q 283 500 294 595 q 243 405 275 439 q 136 357 199 357 q 66 385 93 357 q 39 454 39 412 q 158 607 39 538 q 328 677 227 646 q 554 713 448 713 q 676 675 629 713 q 718 614 708 648 q 730 521 730 577 l 730 201 q 739 113 730 134 q 791 84 752 84 q 846 103 813 84 m 484 396 q 385 351 417 374 q 320 205 320 306 q 401 77 320 77 q 460 104 436 77 q 484 181 484 130 l 484 396 m 422 1042 q 507 1010 469 1042 q 554 914 554 973 q 507 819 554 856 q 420 787 469 787 q 334 819 372 787 q 287 914 287 856 q 334 1010 287 974 q 422 1042 372 1042 m 419 1023 q 379 997 392 1023 q 366 914 366 970 q 378 831 366 861 q 420 806 390 806 q 462 831 450 806 q 474 913 474 860 q 462 998 474 970 q 419 1023 450 1023 z "},"ç":{"ha":753,"x_min":33,"x_max":734,"o":"m 395 -18 q 382 -54 390 -35 q 464 -85 434 -58 q 496 -160 496 -113 q 467 -237 496 -204 q 378 -277 431 -277 q 328 -266 351 -277 q 294 -226 294 -250 q 312 -208 294 -208 q 339 -230 327 -208 q 379 -258 355 -258 q 412 -243 399 -258 q 422 -210 422 -231 q 397 -157 422 -180 q 334 -136 372 -136 q 302 -138 323 -136 q 376 -18 357 -81 q 181 41 264 -15 q 71 170 111 87 q 33 336 33 250 q 65 488 33 415 q 155 613 97 560 q 422 713 265 713 q 636 640 553 713 q 713 483 713 571 q 685 400 713 435 q 600 360 653 360 q 511 400 544 360 q 483 481 483 433 q 496 551 483 507 q 508 612 508 589 q 486 669 508 646 q 423 694 460 694 q 318 621 359 694 q 273 435 273 541 q 334 238 273 312 q 510 159 399 159 q 718 254 627 159 l 734 245 q 593 51 677 116 q 395 -18 509 -15 z "},"é":{"ha":784,"x_min":33,"x_max":756,"o":"m 751 414 l 290 414 q 522 155 292 155 q 671 197 609 155 q 743 277 708 224 l 756 271 q 665 103 715 165 q 399 -18 566 -18 q 131 91 237 -18 q 33 338 33 192 q 161 621 33 511 q 410 712 268 712 q 603 659 517 712 q 728 509 690 603 q 751 414 743 473 m 504 431 q 494 598 504 549 q 408 693 475 693 q 302 566 329 693 q 290 431 290 507 l 504 431 m 315 775 l 374 849 q 433 941 405 889 q 536 1021 476 1021 q 592 998 570 1021 q 615 940 615 974 q 584 878 615 903 q 500 840 558 858 q 396 800 435 821 l 329 762 l 315 775 z "},"è":{"ha":784,"x_min":33,"x_max":756,"o":"m 751 414 l 290 414 q 522 155 292 155 q 671 197 609 155 q 743 277 708 224 l 756 271 q 665 103 715 165 q 399 -18 566 -18 q 131 91 237 -18 q 33 338 33 192 q 161 621 33 511 q 410 712 268 712 q 603 659 517 712 q 728 509 690 603 q 751 414 743 473 m 504 431 q 494 598 504 549 q 408 693 475 693 q 302 566 329 693 q 290 431 290 507 l 504 431 m 487 775 l 473 762 l 406 800 q 302 840 367 821 q 218 878 244 858 q 187 940 187 903 q 210 998 187 974 q 266 1021 233 1021 q 338 985 306 1021 q 389 905 357 964 q 428 849 402 881 l 487 775 z "},"ê":{"ha":784,"x_min":33,"x_max":756,"o":"m 751 414 l 290 414 q 522 155 292 155 q 671 197 609 155 q 743 277 708 224 l 756 271 q 665 103 715 165 q 399 -18 566 -18 q 131 91 237 -18 q 33 338 33 192 q 161 621 33 511 q 410 712 268 712 q 603 659 517 712 q 728 509 690 603 q 751 414 743 473 m 504 431 q 494 598 504 549 q 408 693 475 693 q 302 566 329 693 q 290 431 290 507 l 504 431 m 633 817 l 623 806 l 401 878 l 179 806 l 170 817 l 359 994 l 444 994 l 633 817 z "},"ë":{"ha":784,"x_min":33,"x_max":756,"o":"m 751 414 l 290 414 q 522 155 292 155 q 671 197 609 155 q 743 277 708 224 l 756 271 q 665 103 715 165 q 399 -18 566 -18 q 131 91 237 -18 q 33 338 33 192 q 161 621 33 511 q 410 712 268 712 q 603 659 517 712 q 728 509 690 603 q 751 414 743 473 m 504 431 q 494 598 504 549 q 408 693 475 693 q 302 566 329 693 q 290 431 290 507 l 504 431 m 253 1010 q 330 978 298 1010 q 362 900 362 946 q 330 822 362 854 q 252 789 297 789 q 174 822 205 789 q 141 900 141 854 q 174 978 141 946 q 253 1010 206 1010 m 551 1010 q 628 978 596 1010 q 661 900 661 946 q 628 822 661 854 q 550 789 595 789 q 472 822 505 789 q 439 900 439 854 q 472 978 439 947 q 551 1010 505 1010 z "},"í":{"ha":477,"x_min":0,"x_max":467,"o":"m 1 591 l 0 606 q 366 713 224 657 l 366 178 q 371 77 366 106 q 409 24 378 37 q 467 14 429 16 l 467 0 l 18 0 l 18 14 q 102 44 81 16 q 119 108 115 64 q 120 178 120 125 l 120 406 q 111 513 119 479 q 1 591 88 590 m 153 775 l 212 849 q 270 941 242 889 q 374 1021 313 1021 q 429 998 407 1021 q 452 940 452 974 q 421 878 452 903 q 338 840 395 858 q 233 800 273 821 l 166 762 l 153 775 z "},"ì":{"ha":477,"x_min":0,"x_max":467,"o":"m 1 591 l 0 606 q 366 713 224 657 l 366 178 q 371 77 366 106 q 409 24 378 37 q 467 14 429 16 l 467 0 l 18 0 l 18 14 q 102 44 81 16 q 119 108 115 64 q 120 178 120 125 l 120 406 q 111 513 119 479 q 1 591 88 590 m 324 775 l 311 762 l 243 800 q 139 840 204 821 q 56 878 81 858 q 24 940 24 903 q 47 998 24 974 q 103 1021 70 1021 q 175 985 143 1021 q 226 905 194 964 q 265 849 239 881 l 324 775 z "},"î":{"ha":477,"x_min":0,"x_max":470,"o":"m 1 591 l 0 606 q 366 713 224 657 l 366 178 q 371 77 366 106 q 409 24 378 37 q 467 14 429 16 l 467 0 l 18 0 l 18 14 q 102 44 81 16 q 119 108 115 64 q 120 178 120 125 l 120 406 q 111 513 119 479 q 1 591 88 590 m 470 817 l 460 806 l 238 878 l 16 806 l 7 817 l 196 994 l 281 994 l 470 817 z "},"ï":{"ha":477,"x_min":-13,"x_max":488,"o":"m 1 591 l 0 606 q 366 713 224 657 l 366 178 q 371 77 366 106 q 409 24 378 37 q 467 14 429 16 l 467 0 l 18 0 l 18 14 q 102 44 81 16 q 119 108 115 64 q 120 178 120 125 l 120 406 q 111 513 119 479 q 1 591 88 590 m 99 1010 q 176 978 144 1010 q 208 900 208 946 q 176 822 208 854 q 98 789 143 789 q 20 822 52 789 q -13 900 -13 854 q 20 978 -13 946 q 99 1010 52 1010 m 379 1010 q 456 978 424 1010 q 488 900 488 946 q 456 822 488 854 q 378 789 423 789 q 300 822 332 789 q 267 900 267 854 q 300 978 267 947 q 379 1010 333 1010 z "},"ñ":{"ha":904,"x_min":0,"x_max":876,"o":"m 366 581 q 446 653 410 626 q 619 713 526 713 q 761 654 718 713 q 793 509 793 611 l 793 151 q 795 77 793 96 q 876 14 801 18 l 876 0 l 482 0 l 482 14 q 539 47 526 17 q 547 151 547 68 l 547 413 q 543 543 547 517 q 511 595 536 579 q 471 608 492 608 q 366 559 422 608 l 366 151 q 374 47 366 68 q 431 14 387 17 l 431 0 l 9 0 l 9 14 q 100 44 77 16 q 118 108 115 64 q 120 178 120 124 l 120 406 q 111 513 119 479 q 1 591 88 590 l 0 606 q 366 713 178 646 l 366 581 m 697 968 l 711 968 q 674 866 700 905 q 582 809 637 809 q 492 827 549 809 q 414 854 478 832 q 328 873 355 873 q 262 814 286 873 l 248 814 q 283 923 257 880 q 382 987 322 987 q 454 973 411 987 q 520 951 463 971 q 646 920 610 920 q 681 938 667 920 q 697 968 688 947 z "},"ó":{"ha":832,"x_min":33,"x_max":800,"o":"m 421 713 q 673 621 564 713 q 800 347 800 513 q 673 74 800 182 q 416 -18 564 -18 q 159 74 269 -18 q 33 347 33 182 q 159 621 33 515 q 421 713 271 713 m 414 694 q 340 650 368 694 q 301 347 301 588 q 323 82 301 172 q 358 22 334 44 q 416 0 383 0 q 493 45 465 0 q 532 342 532 106 q 509 612 532 527 q 414 694 488 694 m 330 775 l 389 849 q 448 941 420 889 q 551 1021 491 1021 q 607 998 585 1021 q 630 940 630 974 q 599 878 630 903 q 515 840 573 858 q 411 800 450 821 l 344 762 l 330 775 z "},"ò":{"ha":832,"x_min":33,"x_max":800,"o":"m 421 713 q 673 621 564 713 q 800 347 800 513 q 673 74 800 182 q 416 -18 564 -18 q 159 74 269 -18 q 33 347 33 182 q 159 621 33 515 q 421 713 271 713 m 414 694 q 340 650 368 694 q 301 347 301 588 q 323 82 301 172 q 358 22 334 44 q 416 0 383 0 q 493 45 465 0 q 532 342 532 106 q 509 612 532 527 q 414 694 488 694 m 502 775 l 488 762 l 420 800 q 317 840 382 821 q 233 878 259 858 q 202 940 202 903 q 225 998 202 974 q 281 1021 248 1021 q 353 985 321 1021 q 404 905 372 964 q 443 849 417 881 l 502 775 z "},"ô":{"ha":832,"x_min":33,"x_max":800,"o":"m 421 713 q 673 621 564 713 q 800 347 800 513 q 673 74 800 182 q 416 -18 564 -18 q 159 74 269 -18 q 33 347 33 182 q 159 621 33 515 q 421 713 271 713 m 414 694 q 340 650 368 694 q 301 347 301 588 q 323 82 301 172 q 358 22 334 44 q 416 0 383 0 q 493 45 465 0 q 532 342 532 106 q 509 612 532 527 q 414 694 488 694 m 648 817 l 638 806 l 416 878 l 194 806 l 184 817 l 374 994 l 458 994 l 648 817 z "},"ö":{"ha":832,"x_min":33,"x_max":800,"o":"m 421 713 q 673 621 564 713 q 800 347 800 513 q 673 74 800 182 q 416 -18 564 -18 q 159 74 269 -18 q 33 347 33 182 q 159 621 33 515 q 421 713 271 713 m 414 694 q 340 650 368 694 q 301 347 301 588 q 323 82 301 172 q 358 22 334 44 q 416 0 383 0 q 493 45 465 0 q 532 342 532 106 q 509 612 532 527 q 414 694 488 694 m 268 1010 q 345 978 313 1010 q 377 900 377 946 q 345 822 377 854 q 267 789 312 789 q 189 822 220 789 q 156 900 156 854 q 189 978 156 946 q 268 1010 221 1010 m 566 1010 q 643 978 611 1010 q 675 900 675 946 q 643 822 675 854 q 565 789 610 789 q 487 822 519 789 q 454 900 454 854 q 487 978 454 947 q 566 1010 520 1010 z "},"õ":{"ha":832,"x_min":33,"x_max":800,"o":"m 421 713 q 673 621 564 713 q 800 347 800 513 q 673 74 800 182 q 416 -18 564 -18 q 159 74 269 -18 q 33 347 33 182 q 159 621 33 515 q 421 713 271 713 m 414 694 q 340 650 368 694 q 301 347 301 588 q 323 82 301 172 q 358 22 334 44 q 416 0 383 0 q 493 45 465 0 q 532 342 532 106 q 509 612 532 527 q 414 694 488 694 m 633 968 l 648 968 q 610 866 636 905 q 518 809 573 809 q 428 827 486 809 q 351 854 414 832 q 264 873 291 873 q 198 814 222 873 l 184 814 q 219 923 193 880 q 319 987 258 987 q 391 973 347 987 q 456 951 399 971 q 583 920 546 920 q 617 938 604 920 q 633 968 624 947 z "},"ú":{"ha":897,"x_min":5,"x_max":886,"o":"m 540 -18 l 540 112 q 449 37 480 58 q 276 -18 365 -18 q 198 -2 236 -18 q 141 42 161 15 q 111 186 111 83 l 111 496 q 107 578 111 556 q 65 648 96 631 q 5 661 45 658 l 5 674 q 172 688 75 677 q 357 713 269 699 l 357 210 q 372 118 357 142 q 439 83 392 83 q 540 134 488 83 l 540 496 q 535 578 540 556 q 494 648 525 631 q 434 661 474 658 l 434 674 q 601 688 503 677 q 785 713 698 699 l 785 253 q 795 156 786 177 q 886 95 817 100 l 886 81 q 765 53 821 68 q 582 -5 731 43 l 540 -18 m 362 775 l 421 849 q 479 941 452 889 q 583 1021 523 1021 q 639 998 616 1021 q 662 940 662 974 q 631 878 662 903 q 547 840 605 858 q 443 800 482 821 l 376 762 l 362 775 z "},"ù":{"ha":897,"x_min":5,"x_max":886,"o":"m 540 -18 l 540 112 q 449 37 480 58 q 276 -18 365 -18 q 198 -2 236 -18 q 141 42 161 15 q 111 186 111 83 l 111 496 q 107 578 111 556 q 65 648 96 631 q 5 661 45 658 l 5 674 q 172 688 75 677 q 357 713 269 699 l 357 210 q 372 118 357 142 q 439 83 392 83 q 540 134 488 83 l 540 496 q 535 578 540 556 q 494 648 525 631 q 434 661 474 658 l 434 674 q 601 688 503 677 q 785 713 698 699 l 785 253 q 795 156 786 177 q 886 95 817 100 l 886 81 q 765 53 821 68 q 582 -5 731 43 l 540 -18 m 534 775 l 521 762 l 453 800 q 349 840 414 821 q 266 878 292 858 q 235 940 235 903 q 258 998 235 974 q 313 1021 280 1021 q 385 985 353 1021 q 436 905 404 964 q 475 849 450 881 l 534 775 z "},"û":{"ha":897,"x_min":5,"x_max":886,"o":"m 540 -18 l 540 112 q 449 37 480 58 q 276 -18 365 -18 q 198 -2 236 -18 q 141 42 161 15 q 111 186 111 83 l 111 496 q 107 578 111 556 q 65 648 96 631 q 5 661 45 658 l 5 674 q 172 688 75 677 q 357 713 269 699 l 357 210 q 372 118 357 142 q 439 83 392 83 q 540 134 488 83 l 540 496 q 535 578 540 556 q 494 648 525 631 q 434 661 474 658 l 434 674 q 601 688 503 677 q 785 713 698 699 l 785 253 q 795 156 786 177 q 886 95 817 100 l 886 81 q 765 53 821 68 q 582 -5 731 43 l 540 -18 m 680 817 l 671 806 l 448 878 l 227 806 l 217 817 l 406 994 l 491 994 l 680 817 z "},"ü":{"ha":897,"x_min":5,"x_max":886,"o":"m 540 -18 l 540 112 q 449 37 480 58 q 276 -18 365 -18 q 198 -2 236 -18 q 141 42 161 15 q 111 186 111 83 l 111 496 q 107 578 111 556 q 65 648 96 631 q 5 661 45 658 l 5 674 q 172 688 75 677 q 357 713 269 699 l 357 210 q 372 118 357 142 q 439 83 392 83 q 540 134 488 83 l 540 496 q 535 578 540 556 q 494 648 525 631 q 434 661 474 658 l 434 674 q 601 688 503 677 q 785 713 698 699 l 785 253 q 795 156 786 177 q 886 95 817 100 l 886 81 q 765 53 821 68 q 582 -5 731 43 l 540 -18 m 300 1010 q 376 978 345 1010 q 409 900 409 946 q 376 822 409 854 q 298 789 344 789 q 220 822 252 789 q 188 900 188 854 q 220 978 188 946 q 300 1010 253 1010 m 598 1010 q 675 978 643 1010 q 707 900 707 946 q 675 822 707 854 q 597 789 642 789 q 519 822 551 789 q 486 900 486 854 q 519 978 486 947 q 598 1010 552 1010 z "},"†":{"ha":609,"x_min":9,"x_max":600,"o":"m 295 610 q 246 709 286 653 q 210 766 222 745 q 195 827 195 796 q 224 909 195 876 q 305 944 255 944 q 385 909 355 944 q 414 827 414 876 q 399 766 414 796 q 363 709 389 745 q 315 610 324 652 q 444 669 368 616 q 515 695 484 695 q 583 661 557 695 q 600 602 600 635 q 583 542 600 567 q 516 507 557 507 q 456 526 488 507 q 418 551 450 530 q 314 592 359 588 q 333 515 316 558 q 401 371 351 471 q 321 -273 321 85 l 283 -273 q 200 371 283 50 q 237 430 217 393 q 269 496 258 467 q 296 592 296 571 q 281 589 285 589 q 166 534 238 583 q 94 507 127 507 q 27 542 52 507 q 9 602 9 567 q 27 661 9 635 q 94 695 52 695 q 154 676 121 695 q 191 652 160 673 q 295 610 250 615 z "},"°":{"ha":555,"x_min":37,"x_max":519,"o":"m 281 935 q 448 865 378 935 q 519 694 519 795 q 448 524 519 595 q 278 454 378 454 q 108 524 178 454 q 37 694 37 595 q 108 865 37 796 q 281 935 180 935 m 275 910 q 125 847 189 910 q 62 694 62 784 q 125 542 62 605 q 278 479 189 479 q 431 542 368 479 q 494 694 494 605 q 431 847 494 785 q 275 910 366 910 z "},"¢":{"ha":833,"x_min":71,"x_max":763,"o":"m 439 116 l 439 -69 l 420 -69 l 420 115 q 219 179 302 119 q 111 304 149 229 q 71 471 71 382 q 142 690 71 592 q 309 820 208 782 q 420 845 347 833 l 420 1032 l 439 1032 l 439 846 q 474 847 460 847 q 650 796 576 847 q 743 633 743 732 q 715 550 743 585 q 633 513 684 513 q 546 547 581 513 q 514 637 514 578 q 519 694 514 665 q 526 750 526 734 q 515 789 526 770 q 488 817 505 808 q 439 829 468 829 l 439 332 q 562 304 500 304 q 749 380 682 304 l 763 375 q 701 260 727 302 q 533 132 640 166 q 439 116 490 118 m 420 827 q 349 785 372 814 q 306 614 306 728 q 359 403 306 484 q 420 342 380 373 l 420 827 z "},"£":{"ha":833,"x_min":18,"x_max":824,"o":"m 603 557 l 603 499 l 414 499 q 434 383 434 441 q 392 226 434 307 l 423 221 q 646 197 593 197 q 785 280 745 197 q 810 398 803 317 l 824 398 q 766 125 819 231 q 671 13 726 47 q 547 -18 620 -18 q 305 75 420 -18 q 140 -18 229 -18 q 54 8 90 -18 q 18 79 18 35 q 106 198 18 153 q 270 226 159 225 q 236 343 260 286 q 183 442 223 372 q 155 499 168 471 l 73 499 l 73 557 l 132 557 q 115 639 115 598 q 225 865 115 768 q 436 944 315 944 q 618 889 540 944 q 709 739 709 827 q 678 665 709 694 q 605 638 649 638 q 519 686 550 638 q 497 772 497 722 q 502 821 497 795 q 507 860 507 847 q 482 908 507 888 q 429 926 462 926 q 337 882 372 926 q 309 786 309 844 q 345 654 309 734 l 392 557 l 603 557 m 250 109 q 123 153 182 153 q 50 127 80 153 q 28 82 28 109 q 59 25 28 47 q 122 7 83 7 q 208 39 174 7 q 240 84 229 58 q 250 109 251 109 z "},"§":{"ha":833,"x_min":59,"x_max":776,"o":"m 682 879 l 696 666 l 682 666 q 585 832 644 766 q 426 926 502 926 q 360 903 387 926 q 329 835 329 877 q 352 779 329 803 q 418 738 372 760 l 627 641 q 734 568 699 607 q 776 456 776 520 q 610 228 776 338 q 680 166 657 196 q 723 33 723 109 q 634 -146 723 -81 q 418 -203 555 -203 q 233 -180 319 -203 q 122 -142 193 -170 l 100 120 l 115 120 q 220 -82 153 -4 q 399 -185 309 -185 q 483 -151 450 -185 q 514 -71 514 -118 q 496 -15 514 -38 q 408 44 477 10 l 172 160 q 59 322 59 215 q 121 478 59 412 q 220 550 156 514 q 158 618 176 587 q 134 709 134 659 q 186 848 134 787 q 300 923 227 897 q 420 944 359 944 q 682 879 535 944 m 242 537 q 190 472 190 511 q 208 433 190 448 q 267 398 222 420 l 588 241 q 642 302 642 270 q 604 355 642 332 q 443 441 530 399 l 242 537 z "},"•":{"ha":926,"x_min":272,"x_max":657,"o":"m 467 663 q 600 607 544 663 q 657 471 657 551 q 601 334 657 391 q 465 278 545 278 q 330 334 386 278 q 272 471 272 391 q 329 608 272 553 q 467 663 387 663 z "},"¶":{"ha":722,"x_min":9,"x_max":704,"o":"m 338 -367 l 338 446 q 284 445 302 445 q 119 479 182 445 q 9 681 9 540 q 48 820 9 761 q 197 913 96 890 q 330 926 258 926 l 704 926 l 704 787 l 556 787 l 556 -367 l 518 -367 l 518 787 l 378 787 l 378 -367 l 338 -367 z "},"ß":{"ha":973,"x_min":-28,"x_max":941,"o":"m 357 1012 l 357 0 l -28 0 l -28 14 q 85 44 58 16 q 109 108 104 64 q 111 178 111 123 l 111 712 q 151 924 111 858 q 401 1046 226 1046 q 705 972 574 1046 q 802 876 766 937 q 829 781 829 831 q 807 701 829 739 q 748 646 785 664 q 633 623 704 623 q 537 627 596 623 q 817 509 722 589 q 941 256 941 406 q 869 68 941 146 q 659 -18 789 -18 q 423 81 515 -18 l 433 91 q 468 65 458 71 q 534 46 499 46 q 588 60 562 46 q 631 98 615 75 q 672 264 672 157 q 621 499 672 397 q 486 620 574 592 q 404 631 455 629 l 404 645 q 465 649 446 646 q 545 707 517 659 q 570 822 570 749 q 536 962 570 907 q 429 1028 496 1028 q 357 1012 401 1028 z "},"®":{"ha":1028,"x_min":33,"x_max":996,"o":"m 520 944 q 766 873 650 944 q 943 682 882 802 q 996 463 996 579 q 959 279 996 367 q 854 123 922 191 q 699 18 787 55 q 514 -18 610 -18 q 330 18 419 -18 q 174 123 241 55 q 70 278 106 190 q 33 462 33 367 q 103 715 33 599 q 296 892 173 829 q 520 944 397 944 m 887 203 q 968 464 968 323 q 934 637 968 554 q 836 784 899 721 q 688 882 772 848 q 514 917 605 917 q 340 882 424 917 q 193 784 256 848 q 94 637 129 721 q 60 463 60 553 q 94 290 60 374 q 193 142 129 206 q 340 44 256 79 q 515 9 424 9 q 688 44 604 9 q 836 142 771 79 q 873 185 854 160 l 649 185 l 645 195 q 555 393 591 326 q 503 454 530 441 q 469 462 484 462 l 458 462 l 458 332 q 465 237 458 258 q 513 205 476 210 q 536 203 519 204 l 536 185 l 208 185 l 208 203 q 264 217 248 205 q 283 262 281 231 q 286 332 286 278 l 286 603 q 279 698 286 677 q 231 731 268 726 q 208 733 226 732 l 208 750 l 446 750 q 634 733 575 750 q 740 671 704 713 q 768 597 768 637 q 737 525 768 555 q 644 481 705 495 q 684 464 671 473 q 743 384 713 441 l 791 293 q 838 221 821 236 q 887 203 854 208 m 458 481 l 477 481 q 559 511 536 481 q 584 606 584 542 q 559 701 584 668 q 477 731 537 731 l 458 731 l 458 481 z "},"©":{"ha":1028,"x_min":33,"x_max":996,"o":"m 520 944 q 700 907 612 944 q 854 804 787 870 q 959 647 922 736 q 996 463 996 559 q 959 279 996 367 q 854 123 922 191 q 698 18 787 55 q 514 -18 610 -18 q 330 18 418 -18 q 174 123 241 55 q 69 278 106 190 q 33 462 33 367 q 103 715 33 598 q 296 892 173 829 q 520 944 397 944 m 509 917 q 339 882 422 917 q 193 784 256 847 q 94 637 129 721 q 60 463 60 553 q 94 290 60 374 q 193 142 129 206 q 340 44 256 79 q 514 9 424 9 q 688 44 604 9 q 836 142 772 79 q 934 290 899 206 q 968 463 968 373 q 933 638 968 553 q 836 784 899 723 q 509 917 699 917 m 705 754 l 719 524 l 702 524 q 654 631 683 584 q 511 741 587 741 q 394 464 394 741 q 441 245 394 318 q 532 194 475 194 q 667 313 604 194 q 709 425 694 362 l 726 425 l 718 177 l 701 177 q 688 194 700 194 q 629 184 678 194 q 526 174 572 174 q 307 254 397 174 q 210 469 210 339 q 321 696 210 610 q 515 761 406 761 q 628 745 564 761 q 672 738 659 738 q 689 754 684 738 l 705 754 z "},"™":{"ha":1505,"x_min":14,"x_max":1480,"o":"m 402 907 l 402 515 q 407 432 402 453 q 441 395 414 403 q 494 387 458 389 l 494 370 l 130 370 l 130 387 q 206 410 189 390 q 220 454 218 423 q 222 515 222 463 l 222 907 q 101 844 162 897 q 32 751 54 800 l 14 751 l 41 956 q 90 929 65 932 q 171 926 110 926 l 461 926 q 535 930 513 926 q 583 956 557 932 l 608 751 l 589 751 q 504 859 564 812 q 402 907 450 899 m 1079 591 l 1219 926 l 1480 926 l 1480 909 q 1413 887 1428 906 q 1400 842 1403 873 q 1399 781 1399 831 l 1399 515 q 1403 431 1399 453 q 1433 395 1409 403 q 1479 387 1448 389 l 1479 370 l 1138 370 l 1138 387 q 1204 409 1190 390 q 1217 454 1215 423 q 1219 515 1219 465 l 1219 871 l 997 334 l 774 859 l 774 607 q 806 439 775 486 q 855 396 825 408 q 903 387 869 391 l 903 370 l 619 370 l 619 387 q 725 452 694 397 q 752 622 752 500 l 752 794 q 746 863 752 847 q 639 909 729 906 l 639 926 l 941 926 l 1079 591 z "},"´":{"ha":694,"x_min":261,"x_max":561,"o":"m 261 775 l 320 849 q 378 941 351 889 q 482 1021 422 1021 q 538 998 515 1021 q 561 940 561 974 q 530 878 561 903 q 446 840 504 858 q 342 800 381 821 l 275 762 l 261 775 z "},"¨":{"ha":694,"x_min":87,"x_max":606,"o":"m 199 1010 q 275 978 243 1010 q 308 900 308 946 q 275 822 308 854 q 197 789 243 789 q 119 822 151 789 q 87 900 87 854 q 119 978 87 946 q 199 1010 152 1010 m 497 1010 q 574 978 542 1010 q 606 900 606 946 q 574 822 606 854 q 496 789 541 789 q 418 822 450 789 q 385 900 385 854 q 418 978 385 947 q 497 1010 451 1010 z "},"≠":{"ha":796,"x_min":28,"x_max":768,"o":"m 456 570 l 599 774 l 622 759 l 490 570 l 768 570 l 768 542 l 470 542 l 360 385 l 768 385 l 768 357 l 340 357 l 197 152 l 174 168 l 307 357 l 28 357 l 28 385 l 326 385 l 436 542 l 28 542 l 28 570 l 456 570 z "},"Æ":{"ha":1485,"x_min":-28,"x_max":1472,"o":"m 665 355 l 296 355 q 276 292 281 311 q 258 178 258 231 q 297 62 258 106 q 366 20 326 28 q 403 14 380 16 l 403 0 l -28 0 l -28 14 q 62 47 26 26 q 194 197 123 84 q 279 370 239 267 l 488 912 l 387 912 l 387 926 l 1354 926 l 1410 607 l 1396 607 q 1253 810 1350 721 q 977 909 1142 909 l 938 909 l 938 482 q 1112 545 1042 489 q 1188 686 1177 600 l 1202 686 l 1202 258 l 1188 258 q 1100 410 1169 347 q 1003 460 1057 448 q 938 467 982 465 l 938 138 q 955 43 938 66 q 1019 16 973 16 q 1280 128 1151 16 q 1457 395 1400 233 l 1472 395 l 1408 0 l 515 0 l 515 14 q 593 26 565 17 q 656 94 645 42 q 665 238 665 131 l 665 355 m 665 372 l 665 688 q 658 831 665 795 q 604 900 647 885 q 526 912 571 912 l 507 912 l 300 372 l 665 372 z "},"Ø":{"ha":1024,"x_min":7,"x_max":1017,"o":"m 224 68 l 174 0 l 151 0 l 209 79 q 56 250 105 157 q 7 463 7 343 q 183 827 7 684 q 512 944 328 944 q 785 867 659 944 l 832 932 l 855 932 l 800 857 q 928 739 884 797 q 1017 463 1017 620 q 841 99 1017 242 q 511 -18 696 -18 q 299 27 398 -18 q 224 68 267 42 m 328 210 q 363 93 342 138 q 512 0 410 0 q 633 53 585 0 q 715 460 715 142 q 697 716 715 606 l 328 210 m 692 741 q 513 926 648 926 q 391 873 439 926 q 309 459 309 783 q 323 235 309 346 l 692 741 z "},"∞":{"ha":926,"x_min":-30,"x_max":956,"o":"m 385 312 q 317 241 349 268 q 191 196 262 196 q 27 273 90 196 q -30 452 -30 343 q 56 682 -30 593 q 241 757 129 757 q 485 604 389 757 q 543 693 506 655 q 703 760 610 760 q 899 665 827 760 q 956 473 956 589 q 866 245 956 330 q 769 185 826 207 q 655 163 713 163 q 385 312 497 163 m 524 549 q 784 343 643 343 q 871 377 837 343 q 911 471 911 415 q 708 585 911 585 q 566 566 609 585 q 524 549 528 550 m 334 383 q 256 501 295 454 q 119 574 196 574 q 39 538 66 574 q 14 459 14 503 q 197 366 14 366 q 293 375 252 366 q 334 383 325 382 z "},"±":{"ha":768,"x_min":14,"x_max":754,"o":"m 370 449 l 14 449 l 14 477 l 370 477 l 370 833 l 398 833 l 398 477 l 754 477 l 754 449 l 398 449 l 398 93 l 370 93 l 370 449 m 14 28 l 754 28 l 754 0 l 14 0 l 14 28 z "},"≤":{"ha":694,"x_min":51,"x_max":644,"o":"m 644 909 l 644 796 l 357 621 l 644 421 l 644 120 l 51 532 l 51 545 l 644 909 m 51 100 l 644 100 l 644 0 l 51 0 l 51 100 z "},"≥":{"ha":694,"x_min":51,"x_max":644,"o":"m 51 100 l 644 100 l 644 0 l 51 0 l 51 100 m 51 120 l 51 233 l 338 409 l 51 608 l 51 909 l 644 490 l 644 475 l 51 120 z "},"¥":{"ha":1089,"x_min":-9,"x_max":1098,"o":"m 675 361 l 675 238 q 682 94 675 132 q 736 26 693 41 q 805 14 762 17 l 805 0 l 273 0 l 273 14 q 377 53 351 18 q 400 133 396 78 q 402 238 402 153 l 402 361 l 223 361 l 223 380 l 400 380 l 266 602 l 90 602 l 90 621 l 254 621 l 174 755 q 80 876 121 841 q -9 912 45 903 l -9 926 l 529 926 l 529 912 q 455 845 455 903 q 506 713 455 797 l 562 621 l 762 621 q 805 795 805 716 q 787 880 805 849 q 745 912 774 903 l 745 926 l 1098 926 l 1098 912 q 1013 876 1046 897 q 862 719 958 840 q 789 621 827 674 l 998 621 l 998 602 l 777 602 q 745 553 760 576 l 675 436 l 675 380 l 865 380 l 865 361 l 675 361 m 753 602 l 573 602 l 665 451 l 711 527 q 753 602 728 554 z "},"µ":{"ha":704,"x_min":-13,"x_max":751,"o":"m 751 77 l 751 46 l 526 -17 q 515 -18 521 -18 q 430 66 462 -18 q 279 -22 378 -22 q 169 29 208 -22 q 134 90 154 48 q 134 77 134 82 q 194 -119 134 12 q 216 -198 216 -167 q 194 -246 216 -225 q 106 -280 159 -280 q -1 -234 32 -280 q -13 -190 -13 -217 q 1 -92 -13 -151 q 47 301 43 79 l 47 635 l 292 635 l 292 235 q 302 110 296 128 q 320 87 307 97 q 345 77 333 77 q 413 128 368 77 l 413 635 l 656 635 l 656 199 q 665 104 656 127 q 722 76 674 76 q 736 77 724 76 q 751 77 744 77 z "},"∂":{"ha":694,"x_min":23,"x_max":671,"o":"m 176 955 l 189 981 q 429 847 321 939 q 562 696 512 777 q 671 319 671 517 q 551 41 671 140 q 347 -24 470 -24 q 140 46 222 -24 q 23 319 23 146 q 142 591 23 499 q 352 654 225 654 q 393 652 362 654 q 422 648 410 652 q 176 955 338 851 m 346 605 q 290 578 307 605 q 265 404 265 540 q 277 107 265 188 q 348 26 288 26 q 420 109 410 26 q 429 366 429 186 q 414 558 429 517 q 346 605 395 605 z "},"∑":{"ha":926,"x_min":33,"x_max":905,"o":"m 33 926 l 848 926 l 848 662 l 816 662 q 758 806 808 750 q 614 868 702 869 l 346 868 l 596 432 l 237 -172 l 594 -172 q 713 -153 669 -172 q 873 60 840 -98 l 905 60 l 859 -324 l 33 -324 l 402 296 l 33 926 z "},"∏":{"ha":926,"x_min":-98,"x_max":1024,"o":"m -98 926 l 1024 926 l 1024 895 l 993 895 q 916 865 941 897 q 901 785 901 844 l 901 -182 q 916 -263 901 -242 q 989 -293 939 -294 l 1023 -293 l 1023 -324 l 484 -324 l 484 -293 l 514 -293 q 591 -263 568 -294 q 606 -182 606 -242 l 606 785 q 591 865 606 845 q 514 895 566 897 l 415 895 q 338 865 363 897 q 323 785 323 844 l 323 -182 q 338 -263 323 -243 q 412 -293 361 -294 l 446 -293 l 446 -324 l -94 -324 l -94 -293 l -64 -293 q 13 -263 -9 -294 q 28 -182 28 -242 l 28 785 q 13 865 28 844 q -64 895 -12 897 l -98 895 l -98 926 z "},"π":{"ha":694,"x_min":-68,"x_max":782,"o":"m 782 671 l 782 521 l 643 521 q 633 491 636 503 q 627 419 627 470 l 627 209 q 639 113 627 139 q 692 85 650 85 q 743 90 708 85 l 743 57 l 475 -16 q 456 -20 460 -20 q 417 1 440 -20 q 380 49 395 22 q 363 137 363 81 l 363 334 q 425 482 363 419 q 467 508 442 497 q 492 521 477 513 l 282 521 l 276 410 q 235 95 267 240 q 192 2 221 30 q 87 -38 151 -38 q 3 -12 34 -38 q -26 58 -26 12 q 10 138 -26 104 q 41 158 15 143 q 99 219 76 178 q 140 414 123 260 q 149 520 146 466 q 56 503 79 512 q -38 426 14 487 l -68 452 l 3 590 q 65 653 27 635 q 159 671 102 671 l 782 671 z "},"∫":{"ha":694,"x_min":-125,"x_max":819,"o":"m 494 827 l 494 -35 q 491 -145 494 -123 q 382 -298 476 -243 q 164 -345 300 -345 q -39 -300 37 -345 q -102 -240 -79 -278 q -125 -159 -125 -202 q -84 -63 -125 -102 q 7 -26 -46 -26 q 98 -64 60 -26 q 136 -145 136 -100 q 120 -199 136 -174 q 93 -231 116 -205 q 82 -254 82 -242 q 100 -285 82 -272 q 142 -298 118 -298 q 191 -272 176 -298 q 200 -204 200 -257 l 200 732 q 203 850 200 828 q 313 1003 219 948 q 530 1050 394 1050 q 734 1006 657 1050 q 796 945 773 983 q 819 865 819 907 q 779 768 819 808 q 687 732 741 732 q 596 768 635 732 q 558 850 558 805 q 574 904 558 879 q 602 935 578 911 q 613 959 613 947 q 595 989 613 977 q 553 1003 576 1003 q 493 931 493 1003 q 494 882 493 930 q 494 827 494 848 z "},"ª":{"ha":566,"x_min":28,"x_max":548,"o":"m 537 581 l 548 568 q 398 498 460 498 q 309 568 326 498 q 156 498 252 498 q 56 531 93 498 q 28 593 28 556 q 69 667 28 636 q 305 760 125 710 l 305 800 q 295 890 305 873 q 260 909 283 909 q 210 885 227 909 q 195 832 199 869 q 174 760 187 778 q 95 720 144 720 q 47 737 66 720 q 29 781 29 754 q 106 876 29 834 q 226 922 157 904 q 354 939 296 939 q 469 821 469 939 l 469 633 q 473 583 469 594 q 500 568 480 568 q 537 581 513 568 m 305 741 q 252 717 270 730 q 214 635 214 692 q 259 564 214 564 q 292 578 279 564 q 305 621 305 593 l 305 741 z "},"º":{"ha":505,"x_min":9,"x_max":496,"o":"m 256 939 q 416 884 346 939 q 496 718 496 819 q 415 553 496 618 q 253 498 346 498 q 90 553 159 498 q 9 718 9 618 q 90 884 9 820 q 256 939 161 939 m 252 919 q 201 873 213 919 q 187 718 187 821 q 201 564 187 616 q 253 518 213 518 q 305 564 293 518 q 319 715 319 616 q 305 873 319 824 q 252 919 292 919 z "},"Ω":{"ha":926,"x_min":-79,"x_max":1004,"o":"m 1004 254 l 952 0 l 519 0 l 519 149 q 609 256 582 200 q 659 534 659 357 q 619 768 659 687 q 463 876 567 876 q 302 753 353 876 q 268 524 268 669 q 328 235 268 338 q 408 149 354 192 l 408 0 l -28 0 l -79 254 l -46 254 q 18 168 -27 190 q 100 153 48 154 q 142 151 135 152 l 301 138 l 301 151 q 182 192 224 173 q 98 242 139 212 q -56 537 -56 357 q 31 771 -56 669 q 460 941 173 941 q 871 799 734 941 q 983 538 983 684 q 931 348 983 433 q 781 211 879 264 q 626 151 729 182 l 626 138 l 810 153 q 883 159 863 155 q 957 219 932 172 q 971 254 962 228 l 1004 254 z "},"æ":{"ha":1239,"x_min":37,"x_max":1211,"o":"m 1198 409 l 743 409 q 780 250 743 313 q 968 151 838 151 q 1127 197 1060 151 q 1198 269 1160 220 l 1211 264 q 1121 104 1164 159 q 850 -18 1025 -18 q 585 87 692 -18 q 422 21 473 38 q 223 -18 304 -18 q 95 20 149 -18 q 37 132 37 61 q 103 254 37 200 q 482 411 192 326 l 482 484 q 465 635 482 592 q 396 675 447 675 q 311 631 339 675 q 284 528 294 604 q 269 451 277 471 q 137 355 234 355 q 68 380 95 355 q 39 450 39 406 q 90 557 39 510 q 256 652 140 606 q 532 713 408 713 q 627 696 586 713 q 680 658 652 686 q 866 713 778 713 q 1050 659 963 713 q 1198 409 1187 574 m 482 395 q 362 332 393 364 q 316 163 316 286 q 333 64 316 97 q 391 33 350 33 q 463 67 437 33 q 479 105 477 85 q 482 171 482 126 l 482 395 m 956 425 q 949 578 955 532 q 862 694 932 694 q 743 425 746 694 l 956 425 z "},"ø":{"ha":832,"x_min":33,"x_max":800,"o":"m 191 45 l 135 -33 l 114 -33 l 178 55 q 33 342 33 168 q 159 616 33 509 q 415 709 269 709 q 613 658 524 709 l 671 739 l 692 739 l 628 649 q 737 548 703 597 q 800 342 800 459 q 673 69 800 177 q 416 -23 564 -23 q 191 45 296 -23 m 306 203 q 323 77 311 125 q 416 -5 346 -5 q 493 40 466 -5 q 532 347 532 102 q 525 507 532 418 l 306 203 m 523 532 q 509 608 517 580 q 416 690 486 690 q 340 646 368 690 q 301 357 301 584 q 304 231 301 343 l 523 532 z "},"¿":{"ha":792,"x_min":23,"x_max":746,"o":"m 372 627 q 394 643 384 643 q 418 623 410 643 q 425 592 425 608 q 387 492 425 558 q 302 212 302 349 q 351 60 302 120 q 460 8 391 8 q 526 26 500 8 q 551 80 551 45 q 518 175 551 111 q 496 255 496 217 q 528 340 496 306 q 625 379 564 379 q 715 338 682 379 q 746 248 746 300 q 684 99 746 168 q 549 9 631 40 q 394 -19 477 -19 q 143 40 260 -19 q 55 113 86 68 q 23 210 23 158 q 118 376 23 307 q 264 456 154 401 q 372 522 336 491 q 407 586 407 553 q 397 615 407 604 q 372 627 392 621 m 385 945 q 478 906 439 945 q 517 812 517 867 q 478 718 517 756 q 384 678 439 678 q 290 718 328 678 q 250 812 250 756 q 290 906 250 868 q 385 945 330 945 z "},"¡":{"ha":403,"x_min":28,"x_max":338,"o":"m 168 646 l 182 646 q 200 545 185 592 q 250 433 215 501 q 301 332 268 399 q 338 206 338 256 q 182 -18 338 89 q 87 64 115 32 q 28 198 28 132 q 85 390 28 261 q 144 528 127 483 q 168 646 163 582 m 184 973 q 277 934 238 973 q 316 840 316 895 q 277 745 316 785 q 182 706 238 706 q 88 745 127 706 q 49 840 49 784 q 88 934 49 896 q 184 973 128 973 z "},"¬":{"ha":694,"x_min":35,"x_max":659,"o":"m 368 0 l 368 248 l 35 248 l 35 371 l 659 371 l 659 0 l 368 0 z "},"√":{"ha":926,"x_min":23,"x_max":903,"o":"m 903 1143 l 903 1080 l 760 1080 l 503 0 l 258 0 l 142 475 l 23 475 l 23 538 l 340 538 l 450 70 l 702 1143 l 903 1143 z "},"ƒ":{"ha":833,"x_min":-302,"x_max":845,"o":"m 604 695 l 554 630 l 438 630 l 326 55 q 260 -125 301 -74 q 106 -237 203 -197 q -73 -273 21 -273 q -235 -241 -169 -273 q -302 -140 -302 -208 q -271 -60 -302 -94 q -171 -18 -232 -18 q -94 -56 -119 -18 q -78 -108 -78 -79 q -87 -162 -78 -128 q -96 -208 -96 -193 q -46 -255 -96 -255 q 16 -222 -6 -255 q 47 -122 32 -198 l 193 630 l 112 630 l 309 831 q 500 1001 429 954 q 631 1037 554 1037 q 786 994 727 1037 q 845 884 845 950 q 800 788 845 826 q 714 757 764 757 q 634 792 661 757 q 618 848 618 814 q 625 917 618 872 q 630 967 630 951 q 592 1017 630 1017 q 526 980 557 1017 q 486 880 500 948 l 450 695 l 604 695 z "},"≈":{"ha":694,"x_min":28,"x_max":667,"o":"m 618 737 l 667 713 q 571 594 631 652 q 524 559 545 569 q 439 544 490 544 q 372 553 409 544 q 286 581 349 559 q 189 597 235 597 q 113 576 143 597 q 90 558 106 572 q 75 545 85 554 l 28 569 q 129 694 88 661 q 246 739 185 739 q 374 713 285 739 q 508 685 467 685 q 618 737 565 685 m 618 494 l 667 469 q 571 351 632 410 q 524 316 545 326 q 439 300 490 300 q 372 310 409 300 q 286 336 348 316 q 189 353 235 353 q 113 332 144 353 q 90 314 106 328 q 75 302 85 310 l 28 326 q 129 450 88 418 q 246 495 185 495 q 374 469 284 495 q 508 442 467 442 q 618 494 564 442 z "},"∆":{"ha":926,"x_min":-40,"x_max":965,"o":"m 541 939 l 965 0 l -40 0 l 379 939 l 541 939 m 371 697 l 165 226 q 151 179 151 193 q 168 156 151 162 q 226 152 180 152 l 600 152 l 371 697 z "},"«":{"ha":430,"x_min":0,"x_max":402,"o":"m 397 566 l 402 551 l 304 350 l 402 148 l 397 134 l 172 350 l 397 566 m 224 570 l 229 556 l 132 354 l 229 153 l 224 138 l 0 354 l 224 570 z "},"»":{"ha":430,"x_min":28,"x_max":430,"o":"m 33 566 l 257 350 l 33 134 l 28 148 l 125 350 l 28 551 l 33 566 m 206 570 l 430 354 l 206 138 l 200 153 l 298 354 l 200 556 l 206 570 z "},"…":{"ha":1232,"x_min":28,"x_max":1202,"o":"m 163 258 q 256 218 217 258 q 295 124 295 180 q 256 30 295 68 q 161 -9 217 -9 q 67 30 106 -9 q 28 124 28 68 q 67 218 28 180 q 163 258 107 258 m 616 258 q 709 218 671 258 q 749 124 749 180 q 709 30 749 68 q 615 -9 671 -9 q 521 30 559 -9 q 481 124 481 68 q 521 218 481 180 q 616 258 561 258 m 1071 258 q 1163 218 1124 258 q 1202 124 1202 180 q 1163 30 1202 68 q 1069 -9 1124 -9 q 975 30 1013 -9 q 935 124 935 69 q 975 218 935 180 q 1071 258 1015 258 z "},"À":{"ha":1102,"x_min":-28,"x_max":1130,"o":"m 579 355 l 299 355 q 264 186 264 260 q 309 54 264 102 q 401 14 345 17 l 401 0 l -28 0 l -28 14 q 149 125 64 26 q 281 361 226 217 l 421 731 q 367 804 399 773 q 500 901 426 833 q 603 1009 556 953 q 675 823 641 905 l 854 391 q 996 92 972 114 q 1080 21 1034 37 q 1130 14 1099 16 l 1130 0 l 569 0 l 569 14 q 668 91 668 18 q 610 283 668 145 l 579 355 m 574 371 l 432 715 l 304 371 l 574 371 m 646 1014 l 633 1000 l 565 1038 q 461 1078 526 1059 q 378 1117 404 1097 q 347 1179 347 1141 q 370 1236 347 1212 q 425 1259 392 1259 q 497 1224 465 1259 q 548 1143 516 1203 q 587 1088 562 1120 l 646 1014 z "},"Ã":{"ha":1102,"x_min":-28,"x_max":1130,"o":"m 579 355 l 299 355 q 264 186 264 260 q 309 54 264 102 q 401 14 345 17 l 401 0 l -28 0 l -28 14 q 149 125 64 26 q 281 361 226 217 l 421 731 q 367 804 399 773 q 500 901 426 833 q 603 1009 556 953 q 675 823 641 905 l 854 391 q 996 92 972 114 q 1080 21 1034 37 q 1130 14 1099 16 l 1130 0 l 569 0 l 569 14 q 668 91 668 18 q 610 283 668 145 l 579 355 m 574 371 l 432 715 l 304 371 l 574 371 m 790 1200 l 806 1200 q 765 1098 793 1137 q 663 1040 724 1040 q 526 1070 623 1040 q 384 1105 415 1105 q 312 1045 338 1105 l 296 1045 q 334 1155 306 1112 q 444 1219 377 1219 q 524 1205 475 1219 q 595 1183 532 1203 q 734 1152 694 1152 q 772 1170 758 1152 q 790 1200 780 1179 z "},"Õ":{"ha":1074,"x_min":33,"x_max":1042,"o":"m 543 944 q 866 827 721 944 q 1042 463 1042 684 q 866 99 1042 242 q 537 -18 722 -18 q 208 99 353 -18 q 33 462 33 242 q 208 827 33 687 q 543 944 357 944 m 534 926 q 416 873 465 926 q 334 463 334 783 q 381 110 334 232 q 450 24 401 56 q 538 0 487 0 q 659 53 610 0 q 741 458 741 142 q 694 816 741 699 q 631 897 673 869 q 534 926 590 926 m 777 1200 l 792 1200 q 751 1098 780 1137 q 650 1040 710 1040 q 512 1070 610 1040 q 370 1105 401 1105 q 298 1045 324 1105 l 283 1045 q 321 1155 292 1112 q 430 1219 363 1219 q 510 1205 462 1219 q 582 1183 518 1203 q 720 1152 681 1152 q 759 1170 744 1152 q 777 1200 766 1179 z "},"Œ":{"ha":1505,"x_min":28,"x_max":1491,"o":"m 958 909 l 958 482 q 1131 545 1061 489 q 1208 686 1197 600 l 1221 686 l 1221 258 l 1208 258 q 1120 410 1189 348 q 1023 460 1077 448 q 958 467 1002 465 l 958 138 q 975 43 958 66 q 1039 16 993 16 q 1299 128 1171 16 q 1477 395 1419 232 l 1491 395 l 1428 0 l 675 0 q 522 -18 570 -18 q 248 64 377 -18 q 28 457 28 203 q 192 819 28 680 q 352 911 262 878 q 534 944 441 944 q 675 926 600 944 l 1373 926 l 1430 607 l 1415 607 q 1274 810 1370 721 q 997 909 1162 909 l 958 909 m 684 283 l 684 750 q 668 854 684 823 q 601 913 646 894 q 536 926 570 926 q 384 812 430 926 q 329 450 329 676 q 374 97 329 211 q 530 0 413 0 q 668 87 633 0 q 684 283 684 127 z "},"œ":{"ha":1299,"x_min":33,"x_max":1272,"o":"m 1259 414 l 800 414 q 836 256 802 319 q 1027 156 892 156 q 1259 279 1178 156 l 1272 273 q 1161 83 1218 140 q 908 -18 1061 -18 q 667 68 770 -18 q 421 -19 550 -19 q 205 43 307 -19 q 70 187 115 99 q 33 345 33 260 q 166 623 33 513 q 416 713 274 713 q 578 680 502 713 q 676 618 621 661 q 772 682 734 665 q 922 713 840 713 q 1102 665 1020 713 q 1230 519 1189 614 q 1259 414 1248 479 m 414 695 q 354 669 379 695 q 319 595 328 642 q 301 351 301 513 q 318 100 301 182 q 354 26 328 53 q 417 0 380 0 q 515 100 494 0 q 533 340 533 184 q 515 595 533 517 q 414 695 493 695 m 1013 430 q 1002 585 1013 521 q 972 668 991 644 q 916 695 952 695 q 812 574 834 695 q 800 430 800 512 l 1013 430 z "},"–":{"ha":977,"x_min":56,"x_max":921,"o":"m 921 405 l 921 298 l 56 298 l 56 405 l 921 405 z "},"—":{"ha":1093,"x_min":0,"x_max":1093,"o":"m 1093 405 l 1093 298 l 0 298 l 0 405 l 1093 405 z "},"“":{"ha":604,"x_min":28,"x_max":576,"o":"m 449 1046 l 461 1040 q 427 940 427 992 q 438 890 427 911 q 488 849 450 869 q 551 806 534 825 q 576 731 576 777 q 547 649 576 684 q 451 605 510 605 q 353 650 392 605 q 316 758 316 694 q 372 940 316 844 q 449 1046 409 1004 m 161 1046 l 174 1040 q 138 940 138 992 q 150 890 138 911 q 200 849 161 869 q 262 806 246 825 q 288 731 288 777 q 259 649 288 684 q 163 605 222 605 q 65 650 104 605 q 28 758 28 694 q 83 940 28 844 q 161 1046 121 1003 z "},"”":{"ha":604,"x_min":28,"x_max":576,"o":"m 155 605 l 142 612 q 178 711 178 659 q 166 761 178 740 q 116 802 155 782 q 54 844 69 826 q 28 920 28 875 q 57 1002 28 967 q 153 1046 94 1046 q 251 1001 212 1046 q 288 894 288 958 q 233 711 288 806 q 155 605 195 648 m 443 605 l 431 612 q 466 711 466 659 q 454 761 466 740 q 404 802 443 782 q 342 844 357 826 q 316 920 316 875 q 345 1002 316 967 q 441 1046 382 1046 q 539 1001 500 1046 q 576 894 576 958 q 520 711 576 806 q 443 605 483 647 z "},"‘":{"ha":316,"x_min":28,"x_max":288,"o":"m 161 1046 l 174 1040 q 138 940 138 992 q 150 890 138 911 q 200 849 161 869 q 262 806 246 825 q 288 731 288 777 q 259 649 288 684 q 163 605 222 605 q 65 650 104 605 q 28 758 28 694 q 83 940 28 844 q 161 1046 121 1003 z "},"’":{"ha":316,"x_min":28,"x_max":288,"o":"m 155 605 l 142 612 q 178 711 178 659 q 166 761 178 740 q 116 802 155 782 q 54 844 69 826 q 28 920 28 875 q 57 1002 28 967 q 153 1046 94 1046 q 251 1001 212 1046 q 288 894 288 958 q 233 711 288 806 q 155 605 195 648 z "},"÷":{"ha":768,"x_min":14,"x_max":754,"o":"m 14 477 l 754 477 l 754 449 l 14 449 l 14 477 m 385 833 q 450 806 423 833 q 477 741 477 780 q 450 675 477 702 q 385 648 422 648 q 319 675 346 648 q 292 741 292 703 q 319 806 292 780 q 385 833 346 833 m 385 278 q 450 251 423 278 q 477 186 477 224 q 450 120 477 146 q 385 93 422 93 q 319 120 346 93 q 292 185 292 147 q 319 251 292 224 q 385 278 346 278 z "},"◊":{"ha":926,"x_min":102,"x_max":823,"o":"m 463 962 l 823 463 l 463 -36 l 102 463 l 463 962 m 463 840 l 189 463 l 463 87 l 736 463 l 463 840 z "},"ÿ":{"ha":825,"x_min":-35,"x_max":853,"o":"m 525 258 q 585 385 564 334 q 625 555 625 475 q 602 643 625 612 q 538 681 583 669 l 538 694 l 853 694 l 853 681 q 755 621 798 667 q 621 410 689 546 l 376 -84 q 127 -292 273 -292 q 9 -252 57 -292 q -35 -152 -35 -216 q -1 -66 -35 -100 q 87 -31 35 -31 q 155 -51 127 -31 q 202 -98 176 -64 q 269 -146 239 -146 q 350 -92 315 -146 q 392 -13 363 -70 l 115 549 q 73 628 83 614 q 18 672 47 661 q -28 681 3 677 l -28 694 l 427 694 l 427 681 q 366 621 366 676 q 396 522 366 583 l 525 258 m 264 1010 q 341 978 309 1010 q 374 900 374 946 q 341 822 374 854 q 263 789 309 789 q 185 822 217 789 q 153 900 153 854 q 185 978 153 946 q 264 1010 218 1010 m 563 1010 q 640 978 608 1010 q 672 900 672 946 q 640 822 672 854 q 562 789 607 789 q 484 822 516 789 q 451 900 451 854 q 484 978 451 947 q 563 1010 517 1010 z "},"Ÿ":{"ha":1052,"x_min":-28,"x_max":1080,"o":"m 657 435 l 657 238 q 664 94 657 132 q 718 26 675 41 q 787 14 743 17 l 787 0 l 254 0 l 254 14 q 359 53 333 18 q 382 133 378 78 q 384 238 384 153 l 384 376 l 155 755 q 62 876 103 841 q -28 912 28 903 l -28 926 l 511 926 l 511 912 q 437 844 437 903 q 488 713 437 797 l 646 451 l 693 527 q 787 795 787 679 q 768 880 787 849 q 726 912 755 903 l 726 926 l 1080 926 l 1080 912 q 994 876 1029 898 q 844 719 936 836 q 727 552 774 631 l 657 435 m 410 1252 q 494 1217 458 1252 q 530 1131 530 1181 q 494 1044 530 1080 q 408 1008 458 1008 q 322 1044 357 1008 q 286 1130 286 1080 q 322 1217 286 1181 q 410 1252 358 1252 m 738 1252 q 823 1217 787 1252 q 858 1131 858 1181 q 823 1044 858 1080 q 736 1008 787 1008 q 650 1044 686 1008 q 614 1130 614 1080 q 650 1217 614 1181 q 738 1252 686 1252 z "},"∕":{"ha":83,"x_min":-259,"x_max":342,"o":"m 305 926 l 342 926 l -222 0 l -259 0 l 305 926 z "},"¤":{"ha":768,"x_min":80,"x_max":689,"o":"m 224 283 l 100 159 l 80 178 l 205 303 q 144 463 144 374 q 205 623 144 551 l 80 748 l 100 768 l 224 643 q 385 704 295 704 q 545 643 474 704 l 669 768 l 689 748 l 564 623 q 625 463 625 553 q 564 302 625 374 l 689 178 l 669 159 l 545 283 q 385 222 474 222 q 224 283 296 222 m 382 679 q 232 616 296 679 q 169 463 169 553 q 232 311 169 374 q 385 248 295 248 q 537 311 474 248 q 600 463 600 374 q 537 616 600 554 q 382 679 472 679 z "},"‹":{"ha":257,"x_min":0,"x_max":229,"o":"m 224 568 l 229 554 l 132 352 l 229 150 l 224 136 l 0 352 l 224 568 z "},"›":{"ha":257,"x_min":28,"x_max":257,"o":"m 33 568 l 257 352 l 33 136 l 28 150 l 125 352 l 28 554 l 33 568 z "},"":{"ha":904,"x_min":9,"x_max":895,"o":"m 366 629 l 366 178 q 379 56 366 81 q 437 14 395 23 l 437 0 l 9 0 l 9 14 q 100 44 78 16 q 119 108 115 64 q 121 178 121 124 l 121 629 l 40 629 l 198 831 q 360 1001 298 960 q 503 1037 413 1037 q 686 995 611 1037 q 775 859 775 945 q 743 783 775 813 q 661 753 712 753 q 551 814 583 753 q 534 918 537 840 q 520 990 531 972 q 465 1017 505 1017 q 387 980 412 1017 q 366 880 366 951 l 366 694 l 656 694 q 793 713 743 695 l 793 178 q 798 77 793 106 q 836 24 805 37 q 895 14 856 16 l 895 0 l 492 0 l 492 14 q 538 63 526 25 q 547 178 547 94 l 547 444 q 538 551 547 517 q 501 610 528 591 q 429 629 475 629 l 366 629 z "},"":{"ha":895,"x_min":9,"x_max":895,"o":"m 366 694 l 519 694 l 481 629 l 366 629 l 366 178 q 379 56 366 81 q 437 14 396 22 l 437 0 l 9 0 l 9 14 q 100 44 78 16 q 119 108 115 64 q 121 178 121 124 l 121 629 l 40 629 l 198 831 q 356 1001 298 958 q 483 1037 406 1037 q 564 1028 526 1037 l 621 1015 q 659 1010 642 1010 q 793 1046 689 1010 l 793 178 q 798 77 793 107 q 836 24 805 37 q 895 14 857 16 l 895 0 l 501 0 l 501 14 q 528 34 520 24 q 547 178 549 54 l 547 748 l 546 808 q 531 970 543 939 q 460 1017 513 1017 q 385 980 409 1017 q 366 880 366 949 l 366 694 z "},"‡":{"ha":609,"x_min":9,"x_max":600,"o":"m 295 610 q 246 709 286 653 q 210 766 222 745 q 195 827 195 796 q 224 909 195 876 q 305 944 255 944 q 385 909 355 944 q 414 827 414 876 q 399 766 414 796 q 363 709 389 745 q 315 610 324 652 q 444 669 368 616 q 515 695 484 695 q 583 661 557 695 q 600 602 600 635 q 583 542 600 567 q 516 507 557 507 q 456 526 488 507 q 418 551 450 530 q 314 592 359 588 q 333 515 316 558 q 401 371 351 471 q 373 317 395 358 q 314 147 320 215 q 444 205 368 153 q 515 232 484 232 q 583 197 557 232 q 600 138 600 172 q 583 79 600 104 q 516 44 557 44 q 456 63 488 44 q 418 87 450 66 q 315 129 360 124 q 363 16 325 81 q 399 -50 389 -26 q 414 -122 414 -85 q 385 -228 414 -183 q 305 -273 355 -273 q 224 -228 254 -273 q 195 -122 195 -183 q 210 -50 195 -85 q 246 16 222 -25 q 294 128 288 85 q 281 126 283 126 q 166 71 237 120 q 94 44 127 44 q 27 79 52 44 q 9 138 9 104 q 27 197 9 172 q 94 232 52 232 q 154 213 121 232 q 191 189 160 210 q 296 147 251 151 q 266 255 290 190 q 227 332 257 278 q 200 371 214 353 q 237 430 217 393 q 269 496 258 467 q 296 592 296 571 q 281 589 285 589 q 166 534 238 583 q 94 507 127 507 q 27 542 52 507 q 9 602 9 567 q 27 661 9 635 q 94 695 52 695 q 154 676 121 695 q 191 652 160 673 q 295 610 247 618 z "},"∙":{"ha":324,"x_min":28,"x_max":295,"o":"m 163 486 q 256 447 217 486 q 295 353 295 408 q 256 258 295 297 q 161 219 217 219 q 67 258 106 219 q 28 353 28 297 q 67 447 28 409 q 163 486 107 486 z "},"‚":{"ha":316,"x_min":28,"x_max":288,"o":"m 155 -210 l 142 -203 q 178 -104 178 -157 q 166 -54 178 -75 q 116 -13 155 -33 q 54 30 70 11 q 28 105 28 60 q 57 187 28 152 q 153 231 94 231 q 251 186 212 231 q 288 79 288 142 q 233 -104 288 -9 q 155 -210 195 -168 z "},"„":{"ha":604,"x_min":28,"x_max":576,"o":"m 155 -210 l 142 -203 q 178 -104 178 -157 q 166 -54 178 -75 q 116 -13 155 -33 q 54 30 70 11 q 28 105 28 60 q 57 187 28 152 q 153 231 94 231 q 251 186 212 231 q 288 79 288 142 q 233 -104 288 -9 q 155 -210 195 -168 m 443 -210 l 431 -203 q 466 -104 466 -156 q 454 -54 466 -75 q 404 -13 443 -33 q 342 30 358 11 q 316 105 316 60 q 345 187 316 152 q 441 231 382 231 q 539 186 500 231 q 576 79 576 142 q 520 -104 576 -8 q 443 -210 483 -168 z "},"‰":{"ha":1178,"x_min":28,"x_max":1150,"o":"m 671 1014 l 690 1014 l 54 -41 l 35 -41 l 601 902 q 467 845 528 845 q 359 873 418 845 q 406 737 406 814 q 365 609 406 663 q 298 552 338 573 q 217 531 258 531 q 135 552 175 531 q 68 609 95 573 q 28 737 28 663 q 68 866 28 812 q 135 923 95 902 q 217 944 175 944 q 342 891 281 944 q 457 869 396 869 q 557 888 511 869 q 626 945 603 909 l 671 1014 m 214 926 q 171 874 186 926 q 153 737 153 814 q 171 602 153 663 q 215 549 186 549 q 259 602 244 549 q 277 736 277 662 q 259 874 277 817 q 214 926 243 926 m 501 395 q 581 374 541 395 q 646 317 620 353 q 687 188 687 262 q 646 60 687 114 q 580 3 620 24 q 498 -18 541 -18 q 417 3 456 -18 q 351 60 377 24 q 310 188 310 114 q 351 317 310 264 q 501 395 410 395 m 496 376 q 453 325 467 376 q 435 188 435 264 q 453 52 435 113 q 497 0 467 0 q 541 52 526 0 q 558 186 558 113 q 541 325 558 267 q 496 376 526 376 m 964 395 q 1044 374 1004 395 q 1109 317 1083 353 q 1150 188 1150 262 q 1109 60 1150 114 q 1043 3 1083 24 q 962 -18 1004 -18 q 880 3 920 -18 q 814 60 840 24 q 773 188 773 114 q 814 317 773 264 q 964 395 873 395 m 959 376 q 916 325 930 376 q 899 188 899 264 q 916 52 899 113 q 960 0 930 0 q 1004 52 989 0 q 1021 186 1021 113 q 1004 325 1021 267 q 959 376 989 376 z "},"Â":{"ha":1102,"x_min":-28,"x_max":1130,"o":"m 579 355 l 299 355 q 264 186 264 260 q 309 54 264 102 q 401 14 345 17 l 401 0 l -28 0 l -28 14 q 149 125 64 26 q 281 361 226 217 l 421 731 q 367 804 399 773 q 500 901 426 833 q 603 1009 556 953 q 675 823 641 905 l 854 391 q 996 92 972 114 q 1080 21 1034 37 q 1130 14 1099 16 l 1130 0 l 569 0 l 569 14 q 668 91 668 18 q 610 283 668 145 l 579 355 m 574 371 l 432 715 l 304 371 l 574 371 m 806 1038 l 795 1026 l 551 1105 l 307 1026 l 296 1038 l 505 1233 l 597 1233 l 806 1038 z "},"Ê":{"ha":960,"x_min":9,"x_max":946,"o":"m 412 909 l 412 482 q 586 545 516 489 q 663 686 652 600 l 676 686 l 676 258 l 663 258 q 574 410 644 348 q 477 460 532 448 q 412 467 456 465 l 412 138 q 429 43 412 66 q 494 16 448 16 q 754 128 625 16 q 932 395 874 232 l 946 395 l 883 0 l 9 0 l 9 14 q 114 53 88 18 q 137 133 133 78 q 139 238 139 152 l 139 688 q 132 831 139 794 q 78 900 121 884 q 9 912 53 909 l 9 926 l 828 926 l 884 607 l 870 607 q 728 810 825 721 q 452 909 616 909 l 412 909 m 735 1038 l 725 1026 l 480 1105 l 236 1026 l 226 1038 l 434 1233 l 527 1233 l 735 1038 z "},"Á":{"ha":1102,"x_min":-28,"x_max":1130,"o":"m 579 355 l 299 355 q 264 186 264 260 q 309 54 264 102 q 401 14 345 17 l 401 0 l -28 0 l -28 14 q 149 125 64 26 q 281 361 226 217 l 421 731 q 367 804 399 773 q 500 901 426 833 q 603 1009 556 953 q 675 823 641 905 l 854 391 q 996 92 972 114 q 1080 21 1034 37 q 1130 14 1099 16 l 1130 0 l 569 0 l 569 14 q 668 91 668 18 q 610 283 668 145 l 579 355 m 574 371 l 432 715 l 304 371 l 574 371 m 465 1014 l 524 1088 q 583 1179 555 1127 q 686 1259 626 1259 q 742 1236 720 1259 q 765 1179 765 1212 q 734 1117 765 1141 q 650 1078 708 1097 q 546 1038 585 1059 l 479 1000 l 465 1014 z "},"Ë":{"ha":960,"x_min":9,"x_max":946,"o":"m 412 909 l 412 482 q 586 545 516 489 q 663 686 652 600 l 676 686 l 676 258 l 663 258 q 574 410 644 348 q 477 460 532 448 q 412 467 456 465 l 412 138 q 429 43 412 66 q 494 16 448 16 q 754 128 625 16 q 932 395 874 232 l 946 395 l 883 0 l 9 0 l 9 14 q 114 53 88 18 q 137 133 133 78 q 139 238 139 152 l 139 688 q 132 831 139 794 q 78 900 121 884 q 9 912 53 909 l 9 926 l 828 926 l 884 607 l 870 607 q 728 810 825 721 q 452 909 616 909 l 412 909 m 317 1252 q 402 1217 366 1252 q 437 1131 437 1181 q 402 1044 437 1080 q 316 1008 366 1008 q 230 1044 265 1008 q 194 1130 194 1080 q 230 1217 194 1181 q 317 1252 266 1252 m 646 1252 q 730 1217 694 1252 q 766 1131 766 1181 q 730 1044 766 1080 q 644 1008 694 1008 q 558 1044 593 1008 q 522 1130 522 1080 q 558 1217 522 1181 q 646 1252 594 1252 z "},"È":{"ha":960,"x_min":9,"x_max":946,"o":"m 412 909 l 412 482 q 586 545 516 489 q 663 686 652 600 l 676 686 l 676 258 l 663 258 q 574 410 644 348 q 477 460 532 448 q 412 467 456 465 l 412 138 q 429 43 412 66 q 494 16 448 16 q 754 128 625 16 q 932 395 874 232 l 946 395 l 883 0 l 9 0 l 9 14 q 114 53 88 18 q 137 133 133 78 q 139 238 139 152 l 139 688 q 132 831 139 794 q 78 900 121 884 q 9 912 53 909 l 9 926 l 828 926 l 884 607 l 870 607 q 728 810 825 721 q 452 909 616 909 l 412 909 m 566 1014 l 552 1000 l 484 1038 q 380 1078 446 1059 q 297 1117 323 1097 q 266 1179 266 1141 q 289 1236 266 1212 q 345 1259 311 1259 q 416 1224 385 1259 q 467 1143 435 1203 q 507 1088 481 1120 l 566 1014 z "},"Í":{"ha":551,"x_min":9,"x_max":542,"o":"m 139 238 l 139 688 q 132 831 139 793 q 78 900 121 884 q 9 912 53 909 l 9 926 l 542 926 l 542 912 q 437 873 463 907 q 414 793 419 848 q 412 688 412 773 l 412 238 q 419 94 412 132 q 473 26 430 41 q 542 14 498 17 l 542 0 l 9 0 l 9 14 q 114 53 88 18 q 137 133 133 78 q 139 238 139 153 m 190 1014 l 249 1088 q 307 1179 279 1127 q 411 1259 351 1259 q 467 1236 444 1259 q 490 1179 490 1212 q 458 1117 490 1141 q 375 1078 433 1097 q 271 1038 309 1059 l 203 1000 l 190 1014 z "},"Î":{"ha":551,"x_min":9,"x_max":542,"o":"m 139 238 l 139 688 q 132 831 139 793 q 78 900 121 884 q 9 912 53 909 l 9 926 l 542 926 l 542 912 q 437 873 463 907 q 414 793 419 848 q 412 688 412 773 l 412 238 q 419 94 412 132 q 473 26 430 41 q 542 14 498 17 l 542 0 l 9 0 l 9 14 q 114 53 88 18 q 137 133 133 78 q 139 238 139 153 m 530 1038 l 520 1026 l 275 1105 l 31 1026 l 21 1038 l 229 1233 l 322 1233 l 530 1038 z "},"Ï":{"ha":551,"x_min":-1,"x_max":552,"o":"m 139 238 l 139 688 q 132 831 139 793 q 78 900 121 884 q 9 912 53 909 l 9 926 l 542 926 l 542 912 q 437 873 463 907 q 414 793 419 848 q 412 688 412 773 l 412 238 q 419 94 412 132 q 473 26 430 41 q 542 14 498 17 l 542 0 l 9 0 l 9 14 q 114 53 88 18 q 137 133 133 78 q 139 238 139 153 m 122 1252 q 207 1217 171 1252 q 242 1131 242 1181 q 207 1044 242 1080 q 121 1008 171 1008 q 35 1044 70 1008 q -1 1130 -1 1080 q 35 1217 -1 1181 q 122 1252 71 1252 m 432 1252 q 516 1217 481 1252 q 552 1131 552 1181 q 516 1044 552 1080 q 431 1008 481 1008 q 345 1044 380 1008 q 309 1130 309 1080 q 345 1217 309 1181 q 432 1252 380 1252 z "},"Ì":{"ha":551,"x_min":9,"x_max":542,"o":"m 139 238 l 139 688 q 132 831 139 793 q 78 900 121 884 q 9 912 53 909 l 9 926 l 542 926 l 542 912 q 437 873 463 907 q 414 793 419 848 q 412 688 412 773 l 412 238 q 419 94 412 132 q 473 26 430 41 q 542 14 498 17 l 542 0 l 9 0 l 9 14 q 114 53 88 18 q 137 133 133 78 q 139 238 139 153 m 361 1014 l 348 1000 l 280 1038 q 176 1078 241 1059 q 93 1117 119 1097 q 62 1179 62 1141 q 85 1236 62 1212 q 140 1259 107 1259 q 212 1224 180 1259 q 263 1143 231 1203 q 302 1088 277 1120 l 361 1014 z "},"Ó":{"ha":1074,"x_min":33,"x_max":1042,"o":"m 543 944 q 866 827 721 944 q 1042 463 1042 684 q 866 99 1042 242 q 537 -18 722 -18 q 208 99 353 -18 q 33 462 33 242 q 208 827 33 687 q 543 944 357 944 m 534 926 q 416 873 465 926 q 334 463 334 783 q 381 110 334 232 q 450 24 401 56 q 538 0 487 0 q 659 53 610 0 q 741 458 741 142 q 694 816 741 699 q 631 897 673 869 q 534 926 590 926 m 452 1014 l 511 1088 q 569 1179 541 1127 q 673 1259 612 1259 q 728 1236 706 1259 q 751 1179 751 1212 q 720 1117 751 1141 q 637 1078 694 1097 q 532 1038 571 1059 l 465 1000 l 452 1014 z "},"Ô":{"ha":1074,"x_min":33,"x_max":1042,"o":"m 543 944 q 866 827 721 944 q 1042 463 1042 684 q 866 99 1042 242 q 537 -18 722 -18 q 208 99 353 -18 q 33 462 33 242 q 208 827 33 687 q 543 944 357 944 m 534 926 q 416 873 465 926 q 334 463 334 783 q 381 110 334 232 q 450 24 401 56 q 538 0 487 0 q 659 53 610 0 q 741 458 741 142 q 694 816 741 699 q 631 897 673 869 q 534 926 590 926 m 792 1038 l 782 1026 l 537 1105 l 293 1026 l 283 1038 l 491 1233 l 584 1233 l 792 1038 z "},"":{"ha":926,"x_min":45,"x_max":892,"o":"m 667 960 q 667 947 667 951 q 581 766 667 837 q 482 720 527 722 q 461 720 473 720 q 517 882 461 815 q 667 960 578 952 m 866 634 q 800 572 822 601 q 754 441 754 515 q 829 272 754 340 q 892 234 852 251 q 798 60 848 125 q 656 -37 723 -37 q 601 -24 630 -37 l 545 -1 q 494 3 533 3 q 427 -3 444 3 l 368 -27 q 315 -39 340 -39 q 238 -9 278 -39 q 161 75 197 20 q 45 431 45 248 q 113 639 45 551 q 303 730 182 730 q 412 706 349 730 q 480 688 458 688 q 538 703 501 688 q 606 726 586 721 q 665 733 631 733 q 866 634 793 733 z "},"Ò":{"ha":1074,"x_min":33,"x_max":1042,"o":"m 543 944 q 866 827 721 944 q 1042 463 1042 684 q 866 99 1042 242 q 537 -18 722 -18 q 208 99 353 -18 q 33 462 33 242 q 208 827 33 687 q 543 944 357 944 m 534 926 q 416 873 465 926 q 334 463 334 783 q 381 110 334 232 q 450 24 401 56 q 538 0 487 0 q 659 53 610 0 q 741 458 741 142 q 694 816 741 699 q 631 897 673 869 q 534 926 590 926 m 623 1014 l 610 1000 l 542 1038 q 438 1078 503 1059 q 355 1117 380 1097 q 323 1179 323 1141 q 347 1236 323 1212 q 402 1259 369 1259 q 474 1224 442 1259 q 525 1143 493 1203 q 564 1088 538 1120 l 623 1014 z "},"Ú":{"ha":1046,"x_min":0,"x_max":1074,"o":"m 1074 926 l 1074 912 q 991 870 1023 902 q 919 710 942 820 q 895 422 895 601 l 895 316 q 865 131 895 191 q 541 -18 788 -18 q 228 59 341 -18 q 144 172 163 103 q 130 320 130 226 l 130 688 q 123 831 130 793 q 68 900 112 884 q 0 912 43 909 l 0 926 l 523 926 l 523 912 q 426 873 450 907 q 405 793 409 848 q 403 688 403 772 l 403 364 q 413 183 403 233 q 500 58 430 96 q 631 28 557 28 q 834 117 773 28 q 871 212 862 158 q 877 316 877 245 l 877 444 q 843 775 878 654 q 776 885 821 850 q 722 912 756 899 l 722 926 l 1074 926 m 484 1014 l 543 1088 q 601 1179 573 1127 q 705 1259 644 1259 q 760 1236 738 1259 q 783 1179 783 1212 q 752 1117 783 1141 q 669 1078 726 1097 q 564 1038 603 1059 l 497 1000 l 484 1014 z "},"Û":{"ha":1046,"x_min":0,"x_max":1074,"o":"m 1074 926 l 1074 912 q 991 870 1023 902 q 919 710 942 820 q 895 422 895 601 l 895 316 q 865 131 895 191 q 541 -18 788 -18 q 228 59 341 -18 q 144 172 163 103 q 130 320 130 226 l 130 688 q 123 831 130 793 q 68 900 112 884 q 0 912 43 909 l 0 926 l 523 926 l 523 912 q 426 873 450 907 q 405 793 409 848 q 403 688 403 772 l 403 364 q 413 183 403 233 q 500 58 430 96 q 631 28 557 28 q 834 117 773 28 q 871 212 862 158 q 877 316 877 245 l 877 444 q 843 775 878 654 q 776 885 821 850 q 722 912 756 899 l 722 926 l 1074 926 m 824 1038 l 814 1026 l 569 1105 l 325 1026 l 315 1038 l 523 1233 l 616 1233 l 824 1038 z "},"Ù":{"ha":1046,"x_min":0,"x_max":1074,"o":"m 1074 926 l 1074 912 q 991 870 1023 902 q 919 710 942 820 q 895 422 895 601 l 895 316 q 865 131 895 191 q 541 -18 788 -18 q 228 59 341 -18 q 144 172 163 103 q 130 320 130 226 l 130 688 q 123 831 130 793 q 68 900 112 884 q 0 912 43 909 l 0 926 l 523 926 l 523 912 q 426 873 450 907 q 405 793 409 848 q 403 688 403 772 l 403 364 q 413 183 403 233 q 500 58 430 96 q 631 28 557 28 q 834 117 773 28 q 871 212 862 158 q 877 316 877 245 l 877 444 q 843 775 878 654 q 776 885 821 850 q 722 912 756 899 l 722 926 l 1074 926 m 655 1014 l 642 1000 l 574 1038 q 470 1078 535 1059 q 387 1117 412 1097 q 355 1179 355 1141 q 378 1236 355 1212 q 434 1259 401 1259 q 506 1224 474 1259 q 557 1143 525 1203 q 596 1088 570 1120 l 655 1014 z "},"ı":{"ha":477,"x_min":0,"x_max":467,"o":"m 1 591 l 0 606 q 366 713 224 657 l 366 178 q 371 77 366 106 q 409 24 378 37 q 467 14 429 16 l 467 0 l 18 0 l 18 14 q 102 44 81 16 q 119 108 115 64 q 120 178 120 125 l 120 406 q 111 513 119 479 q 1 591 88 590 z "},"ˆ":{"ha":694,"x_min":116,"x_max":579,"o":"m 579 817 l 570 806 l 347 878 l 125 806 l 116 817 l 305 994 l 390 994 l 579 817 z "},"˜":{"ha":694,"x_min":116,"x_max":579,"o":"m 565 968 l 579 968 q 542 866 568 905 q 450 809 505 809 q 359 827 417 809 q 282 854 346 832 q 195 873 222 873 q 130 814 153 873 l 116 814 q 151 923 125 880 q 250 987 190 987 q 322 973 279 987 q 388 951 330 971 q 514 920 477 920 q 549 938 535 920 q 565 968 555 947 z "},"ˉ":{"ha":694,"x_min":116,"x_max":579,"o":"m 579 907 l 579 889 l 116 889 l 116 907 l 579 907 z "},"˘":{"ha":694,"x_min":116,"x_max":579,"o":"m 565 1008 l 579 1008 q 534 886 566 933 q 347 787 468 787 q 161 886 227 787 q 116 1008 129 932 l 130 1008 q 347 901 210 901 q 565 1008 485 901 z "},"˙":{"ha":694,"x_min":236,"x_max":457,"o":"m 348 1010 q 425 978 393 1010 q 457 900 457 946 q 425 822 457 854 q 347 789 392 789 q 269 822 300 789 q 236 900 236 854 q 269 978 236 946 q 348 1010 301 1010 z "},"˚":{"ha":694,"x_min":214,"x_max":481,"o":"m 349 1042 q 434 1010 396 1042 q 481 914 481 973 q 434 819 481 856 q 347 787 396 787 q 260 819 298 787 q 214 914 214 856 q 260 1010 214 974 q 349 1042 299 1042 m 346 1023 q 306 997 319 1023 q 293 914 293 970 q 305 831 293 861 q 347 806 317 806 q 389 831 377 806 q 401 913 401 860 q 389 998 401 970 q 346 1023 377 1023 z "},"¸":{"ha":694,"x_min":292,"x_max":495,"o":"m 380 0 l 397 0 q 380 -54 391 -29 q 463 -85 432 -58 q 495 -160 495 -113 q 465 -237 495 -204 q 376 -277 429 -277 q 326 -266 349 -277 q 292 -226 292 -250 q 311 -208 292 -208 q 338 -230 326 -208 q 378 -258 354 -258 q 410 -243 398 -258 q 420 -210 420 -231 q 395 -157 420 -180 q 333 -136 370 -136 q 301 -138 319 -136 q 380 0 367 -68 z "},"˝":{"ha":694,"x_min":191,"x_max":690,"o":"m 191 751 l 237 834 q 278 935 260 879 q 381 1033 311 1033 q 439 1006 415 1033 q 459 951 459 983 q 438 899 459 923 q 362 847 416 875 q 267 789 300 815 l 207 740 l 191 751 m 422 751 l 468 834 q 510 935 491 879 q 612 1033 543 1033 q 671 1006 646 1033 q 690 951 690 983 q 669 899 690 923 q 593 847 648 875 q 498 789 532 816 l 438 740 l 422 751 z "},"˛":{"ha":694,"x_min":382,"x_max":618,"o":"m 595 0 q 533 -21 558 -6 q 473 -117 473 -56 q 530 -187 473 -166 q 583 -197 558 -197 q 614 -193 598 -197 l 618 -201 q 502 -252 569 -252 q 420 -224 453 -252 q 382 -140 382 -191 q 403 -75 382 -106 q 458 -26 423 -45 q 537 0 491 -9 l 595 0 z "},"ˇ":{"ha":694,"x_min":116,"x_max":579,"o":"m 116 981 l 125 992 l 347 920 l 570 992 l 579 981 l 390 804 l 305 804 l 116 981 z "},"Ł":{"ha":931,"x_min":9,"x_max":941,"o":"m 139 351 l 139 688 q 132 831 139 794 q 78 900 121 884 q 9 912 53 909 l 9 926 l 542 926 l 542 912 q 437 873 463 907 q 414 793 419 848 q 412 688 412 773 l 412 529 l 632 694 l 632 671 l 412 506 l 412 174 q 426 56 412 86 q 515 16 444 16 q 789 163 660 16 q 927 416 876 262 l 941 416 l 858 0 l 9 0 l 9 14 q 114 53 88 18 q 137 133 133 78 q 139 238 139 152 l 139 328 l 9 230 l 9 253 l 139 351 z "},"ł":{"ha":458,"x_min":-18,"x_max":449,"o":"m 347 608 l 449 685 l 449 662 l 347 585 l 347 178 q 353 77 347 107 q 391 24 359 37 q 449 14 411 16 l 449 0 l 0 0 l 0 14 q 83 44 62 16 q 100 108 97 64 q 102 178 102 124 l 102 431 l 0 358 l 0 381 l 102 454 l 102 748 q 93 855 101 822 q -17 934 70 932 l -18 948 q 347 1046 206 995 l 347 608 z "},"Š":{"ha":859,"x_min":37,"x_max":821,"o":"m 737 587 l 724 587 q 608 807 680 718 q 391 926 511 926 q 287 891 326 926 q 243 792 243 854 q 292 688 243 726 q 464 602 345 647 l 593 552 q 753 457 699 511 q 821 289 821 388 q 797 175 821 231 q 730 77 773 119 q 481 -18 634 -18 q 180 22 365 -18 q 110 34 129 34 q 65 0 73 34 l 51 0 l 37 429 l 51 429 q 219 136 98 274 q 344 28 287 58 q 468 0 399 0 q 577 37 536 0 q 624 141 624 77 q 569 254 624 210 q 428 330 518 296 l 292 383 q 101 494 167 432 q 40 641 40 552 q 133 848 40 760 q 401 945 237 945 q 522 932 456 945 q 612 912 537 929 q 675 903 654 903 q 707 934 702 903 l 722 934 l 737 587 m 684 1221 l 476 1026 l 383 1026 l 175 1221 l 185 1233 l 429 1154 l 674 1233 l 684 1221 z "},"š":{"ha":709,"x_min":56,"x_max":686,"o":"m 604 673 l 618 444 l 604 444 q 516 590 572 523 q 345 694 429 694 q 279 668 308 694 q 250 601 250 641 q 380 475 250 518 l 475 444 q 626 368 573 412 q 686 233 686 317 q 660 126 686 176 q 589 45 634 76 q 377 -18 499 -18 q 69 55 268 -18 l 56 332 l 69 332 q 190 130 121 211 q 403 0 299 0 q 481 32 452 0 q 505 100 505 57 q 478 173 505 146 q 375 229 448 202 l 307 254 q 125 346 186 297 q 60 485 60 399 q 155 655 60 589 q 358 713 239 713 q 604 673 459 713 m 123 981 l 133 992 l 355 920 l 577 992 l 587 981 l 397 804 l 313 804 l 123 981 z "},"Ž":{"ha":926,"x_min":18,"x_max":908,"o":"m 908 926 l 341 16 q 506 45 430 18 q 651 130 576 71 q 787 269 725 189 q 874 416 842 339 l 888 416 l 810 0 l 18 0 l 582 909 q 418 872 494 904 q 280 789 350 843 q 155 669 211 735 q 79 551 111 616 l 66 551 l 155 926 l 908 926 m 764 1221 l 556 1026 l 463 1026 l 255 1221 l 265 1233 l 509 1154 l 754 1233 l 764 1221 z "},"ž":{"ha":787,"x_min":18,"x_max":749,"o":"m 736 694 l 312 16 q 568 134 430 20 q 736 344 663 216 l 749 340 l 645 -28 q 595 -5 614 -9 q 522 0 573 0 l 18 0 l 445 678 q 209 575 336 662 q 62 408 116 509 l 48 411 l 141 734 q 168 704 153 711 q 233 694 187 694 l 736 694 m 208 981 l 218 992 l 439 920 l 662 992 l 671 981 l 482 804 l 397 804 l 208 981 z "},"¦":{"ha":694,"x_min":256,"x_max":439,"o":"m 256 926 l 439 926 l 439 415 l 256 415 l 256 926 m 256 213 l 439 213 l 439 -231 l 256 -231 l 256 213 z "},"Ð":{"ha":1057,"x_min":9,"x_max":1025,"o":"m 139 483 l 9 483 l 9 499 l 139 499 l 139 688 q 132 831 139 794 q 78 900 121 884 q 9 912 53 909 l 9 926 l 492 926 q 893 787 750 926 q 1025 458 1025 657 q 877 119 1025 250 q 547 0 741 0 l 9 0 l 9 14 q 114 53 88 18 q 137 133 133 78 q 139 238 139 152 l 139 483 m 412 483 l 412 201 q 418 83 412 111 q 516 16 431 16 q 693 140 647 16 q 734 466 734 250 q 709 721 734 631 q 597 885 675 848 q 450 909 547 909 l 412 909 l 412 499 l 575 499 l 575 483 l 412 483 z "},"ð":{"ha":832,"x_min":33,"x_max":800,"o":"m 398 888 l 243 767 l 232 781 l 389 903 q 270 1050 345 971 l 278 1061 q 450 951 372 1011 l 597 1067 l 608 1052 l 465 940 q 671 718 581 844 q 800 351 800 534 q 673 74 800 182 q 416 -18 564 -18 q 159 74 269 -18 q 33 347 33 182 q 159 621 33 513 q 414 713 269 713 q 478 709 441 713 q 398 888 443 814 m 414 694 q 340 650 368 694 q 301 347 301 588 q 323 82 301 172 q 358 22 334 44 q 416 0 383 0 q 493 45 465 0 q 532 342 532 106 q 509 612 532 527 q 414 694 488 694 z "},"Ý":{"ha":1052,"x_min":-28,"x_max":1080,"o":"m 657 435 l 657 238 q 664 94 657 132 q 718 26 675 41 q 787 14 743 17 l 787 0 l 254 0 l 254 14 q 359 53 333 18 q 382 133 378 78 q 384 238 384 153 l 384 376 l 155 755 q 62 876 103 841 q -28 912 28 903 l -28 926 l 511 926 l 511 912 q 437 844 437 903 q 488 713 437 797 l 646 451 l 693 527 q 787 795 787 679 q 768 880 787 849 q 726 912 755 903 l 726 926 l 1080 926 l 1080 912 q 994 876 1029 898 q 844 719 936 836 q 727 552 774 631 l 657 435 m 486 1014 l 545 1088 q 604 1179 576 1127 q 707 1259 647 1259 q 763 1236 741 1259 q 786 1179 786 1212 q 755 1117 786 1141 q 671 1078 729 1097 q 567 1038 606 1059 l 500 1000 l 486 1014 z "},"ý":{"ha":825,"x_min":-35,"x_max":853,"o":"m 525 258 q 585 385 564 334 q 625 555 625 475 q 602 643 625 612 q 538 681 583 669 l 538 694 l 853 694 l 853 681 q 755 621 798 667 q 621 410 689 546 l 376 -84 q 127 -292 273 -292 q 9 -252 57 -292 q -35 -152 -35 -216 q -1 -66 -35 -100 q 87 -31 35 -31 q 155 -51 127 -31 q 202 -98 176 -64 q 269 -146 239 -146 q 350 -92 315 -146 q 392 -13 363 -70 l 115 549 q 73 628 83 614 q 18 672 47 661 q -28 681 3 677 l -28 694 l 427 694 l 427 681 q 366 621 366 676 q 396 522 366 583 l 525 258 m 327 775 l 386 849 q 444 941 416 889 q 548 1021 488 1021 q 604 998 581 1021 q 627 940 627 974 q 595 878 627 903 q 512 840 570 858 q 408 800 447 821 l 340 762 l 327 775 z "},"Þ":{"ha":950,"x_min":9,"x_max":927,"o":"m 412 213 q 420 94 414 130 q 482 26 432 42 q 559 14 510 17 l 559 0 l 9 0 l 9 14 q 114 53 88 18 q 137 133 133 78 q 139 238 139 153 l 139 688 q 132 831 139 793 q 78 900 121 884 q 9 912 53 909 l 9 926 l 542 926 l 542 912 q 436 867 467 905 q 414 790 418 841 q 412 741 414 779 l 484 741 q 791 680 671 741 q 901 576 863 644 q 927 477 927 531 q 857 321 927 388 q 658 228 786 252 q 452 213 581 213 l 412 213 m 412 229 l 448 229 q 590 280 551 229 q 635 481 635 340 q 593 667 635 605 q 450 724 553 724 l 412 724 l 412 229 z "},"þ":{"ha":854,"x_min":-18,"x_max":822,"o":"m 357 622 q 565 713 463 713 q 768 595 696 713 q 822 382 822 506 q 721 92 822 206 q 493 -18 624 -18 q 357 31 421 -18 l 357 -96 q 363 -196 357 -167 q 408 -250 372 -237 q 477 -260 432 -258 l 477 -273 l -18 -273 l -18 -260 q 86 -220 60 -255 q 109 -140 105 -195 q 111 -35 111 -121 l 111 748 q 102 855 111 822 q -7 934 79 932 l -9 948 q 357 1046 197 991 l 357 622 m 357 54 q 425 24 386 24 q 529 111 496 24 q 563 334 563 203 q 526 564 563 475 q 474 625 509 605 q 439 634 458 634 q 357 601 408 634 l 357 54 z "},"−":{"ha":768,"x_min":14,"x_max":754,"o":"m 14 477 l 754 477 l 754 449 l 14 449 l 14 477 z "},"×":{"ha":768,"x_min":60,"x_max":709,"o":"m 385 444 l 80 139 l 60 159 l 365 463 l 60 768 l 80 787 l 385 483 l 689 787 l 709 768 l 404 463 l 709 159 l 689 139 l 385 444 z "},"¹":{"ha":593,"x_min":115,"x_max":477,"o":"m 392 945 l 392 515 q 397 431 392 452 q 430 393 403 401 q 477 386 446 388 l 477 370 l 125 370 l 125 386 q 195 408 178 389 q 209 453 206 422 q 210 509 210 463 l 210 715 q 204 771 210 758 q 159 795 197 792 q 115 797 146 797 l 115 812 q 262 873 181 833 q 392 945 328 904 z "},"²":{"ha":593,"x_min":66,"x_max":532,"o":"m 106 771 l 90 771 q 308 935 142 935 q 463 880 406 935 q 511 774 511 835 q 425 637 511 692 q 300 583 388 612 q 192 539 220 555 q 129 492 153 517 l 345 492 q 458 500 430 492 q 515 545 494 511 l 532 545 q 469 350 492 441 l 454 350 q 448 364 452 360 q 417 370 441 370 q 385 370 410 370 q 355 371 371 371 l 66 371 q 93 476 69 437 q 143 528 107 499 q 193 567 152 535 q 263 629 235 599 q 314 738 314 682 q 290 800 314 774 q 210 830 261 830 q 106 771 139 830 z "},"³":{"ha":593,"x_min":62,"x_max":531,"o":"m 234 682 l 234 696 q 308 725 289 707 q 337 791 337 752 q 318 838 337 818 q 251 862 294 862 q 194 847 217 862 q 163 815 180 838 l 148 819 q 205 899 165 870 q 320 935 254 935 q 444 899 394 935 q 489 813 489 866 q 439 726 489 759 q 507 666 484 703 q 531 581 531 628 q 449 421 531 486 q 261 359 369 359 q 127 387 186 359 q 62 484 62 418 q 81 538 62 516 q 147 565 106 565 q 203 544 182 565 q 225 495 225 523 q 219 455 225 480 q 214 421 214 435 q 229 391 214 403 q 273 377 246 377 q 336 407 313 377 q 365 506 365 446 q 320 633 365 585 q 234 682 284 671 z "},"½":{"ha":1268,"x_min":115,"x_max":1208,"o":"m 392 945 l 392 515 q 397 431 392 452 q 430 393 403 401 q 477 386 446 388 l 477 370 l 125 370 l 125 386 q 195 408 178 389 q 209 453 206 422 q 210 509 210 463 l 210 715 q 204 771 210 758 q 159 795 197 792 q 115 797 146 797 l 115 812 q 262 873 181 833 q 392 945 328 904 m 898 926 l 935 926 l 371 0 l 334 0 l 898 926 m 783 401 l 766 401 q 983 565 818 565 q 1139 510 1082 565 q 1187 404 1187 465 q 1101 267 1187 321 q 977 212 1063 242 q 868 169 897 184 q 805 121 829 147 l 1021 121 q 1135 130 1106 121 q 1191 174 1171 140 l 1208 174 q 1145 -20 1170 73 l 1129 -20 q 1124 -7 1128 -11 q 1093 -1 1116 -1 q 1061 -1 1086 -1 q 1031 0 1046 0 l 743 0 q 769 105 745 66 q 869 197 788 134 q 939 258 913 230 q 990 368 990 312 q 966 429 990 404 q 886 460 937 460 q 783 401 814 460 z "},"¼":{"ha":1268,"x_min":115,"x_max":1256,"o":"m 392 945 l 392 515 q 397 431 392 452 q 430 393 403 401 q 477 386 446 388 l 477 370 l 125 370 l 125 386 q 195 408 178 389 q 209 453 206 422 q 210 509 210 463 l 210 715 q 204 771 210 758 q 159 795 197 792 q 115 797 146 797 l 115 812 q 262 873 181 833 q 392 945 328 904 m 898 926 l 935 926 l 371 0 l 334 0 l 898 926 m 1006 564 l 1132 564 l 1132 227 l 1164 227 q 1215 233 1200 227 q 1241 251 1225 237 l 1256 245 q 1208 156 1223 200 l 1132 156 l 1132 105 q 1143 47 1133 63 q 1232 16 1163 16 l 1232 0 l 852 0 l 852 16 q 926 26 907 17 q 951 56 945 37 q 958 105 958 73 l 958 156 l 708 156 q 672 216 694 185 q 1006 564 853 382 m 958 435 q 753 227 852 317 l 958 227 l 958 435 z "},"¾":{"ha":1268,"x_min":62,"x_max":1256,"o":"m 234 682 l 234 696 q 308 725 289 707 q 337 791 337 752 q 318 838 337 818 q 251 862 294 862 q 194 847 217 862 q 163 815 180 838 l 148 819 q 205 899 165 870 q 320 935 254 935 q 444 899 394 935 q 489 813 489 866 q 439 726 489 759 q 507 666 484 703 q 531 581 531 628 q 449 421 531 486 q 261 359 369 359 q 127 387 186 359 q 62 484 62 418 q 81 538 62 516 q 147 565 106 565 q 203 544 182 565 q 225 495 225 523 q 219 455 225 480 q 214 421 214 435 q 229 391 214 403 q 273 377 246 377 q 336 407 313 377 q 365 506 365 446 q 320 633 365 585 q 234 682 284 671 m 898 926 l 935 926 l 370 0 l 334 0 l 898 926 m 1006 564 l 1132 564 l 1132 227 l 1164 227 q 1215 233 1200 227 q 1241 251 1225 237 l 1256 245 q 1208 156 1223 200 l 1132 156 l 1132 105 q 1143 47 1133 63 q 1232 16 1163 16 l 1232 0 l 852 0 l 852 16 q 926 26 907 17 q 951 56 945 37 q 958 105 958 73 l 958 156 l 708 156 q 672 216 694 185 q 1006 564 852 381 m 958 435 q 753 227 852 317 l 958 227 l 958 435 z "},"₣":{"ha":1434,"x_min":-9,"x_max":1453,"o":"m 843 625 q 1119 713 957 654 l 1119 500 q 1184 632 1145 581 q 1326 713 1245 713 q 1417 677 1380 713 q 1453 592 1453 643 q 1426 514 1453 547 q 1345 476 1395 476 q 1280 499 1308 476 q 1240 547 1269 508 q 1197 575 1219 575 q 1154 546 1171 575 q 1133 482 1137 515 q 1128 352 1128 436 l 1128 178 q 1134 77 1128 106 q 1176 24 1142 37 q 1240 14 1198 16 l 1240 0 l 772 0 l 772 14 q 863 44 840 16 q 882 108 878 64 q 883 178 883 124 l 883 406 q 874 513 883 479 q 765 591 851 590 l 763 606 l 809 616 l 822 620 q 704 795 781 724 q 433 909 578 909 l 393 909 l 393 467 q 642 669 606 477 l 656 669 l 656 246 l 642 246 q 556 390 621 332 q 393 453 481 452 l 393 237 q 405 96 394 130 q 431 53 412 73 q 474 25 450 33 q 562 14 505 15 l 562 0 l -9 0 l -9 14 q 95 53 69 18 q 118 133 114 78 q 120 238 120 152 l 120 688 q 113 831 120 794 q 59 900 102 884 q -9 912 34 909 l -9 926 l 792 926 l 843 625 z "},"Ğ":{"ha":1008,"x_min":33,"x_max":1017,"o":"m 771 1240 l 787 1240 q 738 1118 773 1164 q 532 1019 665 1019 q 326 1118 399 1019 q 277 1240 292 1164 l 293 1240 q 532 1133 380 1133 q 771 1240 683 1133 m 848 934 l 863 572 l 850 572 q 744 806 809 715 q 555 926 659 926 q 470 899 510 926 q 406 825 431 873 q 324 408 324 669 q 381 85 324 194 q 528 0 425 0 q 631 53 607 0 q 650 187 650 98 l 650 286 q 637 372 650 350 q 587 416 621 404 q 538 427 572 422 l 538 441 l 1017 441 l 1017 427 q 969 418 984 425 q 923 357 937 401 q 914 247 914 332 l 914 0 l 901 0 q 854 44 887 44 q 787 28 837 44 q 507 -18 638 -18 q 169 128 310 -18 q 33 458 33 271 q 117 728 33 603 q 330 903 197 847 q 538 945 427 945 q 754 916 616 945 q 804 909 785 909 q 834 934 829 909 l 848 934 z "},"ğ":{"ha":775,"x_min":33,"x_max":784,"o":"m 605 1194 l 619 1194 q 574 1072 606 1119 q 387 973 508 973 q 201 1072 267 973 q 156 1194 169 1118 l 170 1194 q 387 1087 250 1087 q 605 1194 525 1087 m 209 347 q 178 294 178 323 q 221 233 178 248 q 343 219 258 219 q 435 222 375 219 q 529 226 491 226 q 705 174 637 226 q 784 24 784 115 q 758 -71 784 -22 q 688 -152 731 -119 q 536 -224 625 -199 q 348 -250 448 -250 q 140 -221 232 -250 q 67 -177 94 -206 q 40 -113 40 -149 q 184 16 40 -34 q 88 56 123 30 q 33 158 33 98 q 193 353 33 267 q 114 395 141 370 q 60 509 60 442 q 117 623 60 570 q 376 713 205 703 q 376 739 376 730 q 408 880 376 826 q 547 958 456 958 q 635 926 600 958 q 672 844 672 892 q 646 769 672 799 q 574 736 618 736 q 492 779 532 736 q 438 814 457 814 q 391 726 391 814 q 391 713 391 722 l 404 713 q 573 674 494 712 q 693 525 693 616 q 672 451 693 488 q 615 389 650 414 q 374 321 517 321 q 209 347 293 321 m 372 694 q 288 530 288 694 q 311 383 288 432 q 381 339 331 339 q 450 382 431 339 q 467 505 467 422 q 372 694 467 694 m 216 12 q 175 -66 175 -16 q 260 -190 175 -147 q 425 -225 331 -225 q 578 -186 520 -225 q 633 -93 633 -150 q 591 -17 633 -43 q 481 8 550 8 q 401 5 453 8 q 326 2 353 2 q 216 12 279 2 z "},"İ":{"ha":551,"x_min":9,"x_max":542,"o":"m 277 1252 q 361 1217 326 1252 q 397 1131 397 1181 q 361 1044 397 1080 q 275 1008 326 1008 q 189 1044 224 1008 q 153 1130 153 1080 q 189 1217 153 1181 q 277 1252 225 1252 m 139 238 l 139 688 q 132 831 139 793 q 78 900 121 884 q 9 912 53 909 l 9 926 l 542 926 l 542 912 q 437 873 463 907 q 414 793 419 848 q 412 688 412 773 l 412 238 q 419 94 412 132 q 473 26 430 41 q 542 14 498 17 l 542 0 l 9 0 l 9 14 q 114 53 88 18 q 137 133 133 78 q 139 238 139 153 z "},"Ş":{"ha":859,"x_min":37,"x_max":821,"o":"m 476 -18 q 460 -59 470 -41 q 551 -93 518 -64 q 587 -176 587 -123 q 554 -261 587 -224 q 456 -304 515 -304 q 401 -293 427 -304 q 364 -248 364 -275 q 384 -229 364 -229 q 414 -253 401 -229 q 458 -284 432 -284 q 494 -267 481 -284 q 505 -231 505 -254 q 477 -173 505 -197 q 409 -149 450 -149 q 374 -152 395 -149 q 426 -83 404 -119 q 456 -18 448 -47 q 180 22 353 -16 q 110 34 129 34 q 65 0 73 34 l 51 0 l 37 429 l 51 429 q 219 136 98 274 q 344 28 287 58 q 468 0 399 0 q 577 37 536 0 q 624 141 624 77 q 569 254 624 210 q 428 330 518 296 l 292 383 q 101 494 167 432 q 40 641 40 552 q 133 848 40 760 q 401 945 237 945 q 522 932 456 945 q 612 912 537 929 q 675 903 654 903 q 707 934 702 903 l 722 934 l 737 587 l 724 587 q 608 807 680 718 q 391 926 511 926 q 287 891 326 926 q 243 792 243 854 q 292 688 243 726 q 464 602 345 647 l 593 552 q 753 457 699 511 q 821 288 821 388 q 763 115 821 195 q 476 -18 668 -17 z "},"ş":{"ha":709,"x_min":56,"x_max":686,"o":"m 401 -18 q 387 -54 396 -36 q 470 -85 439 -58 q 503 -160 503 -113 q 473 -237 503 -204 q 384 -277 437 -277 q 334 -266 357 -277 q 300 -226 300 -250 q 318 -208 300 -208 q 345 -230 333 -208 q 385 -258 361 -258 q 418 -243 406 -258 q 428 -210 428 -231 q 403 -157 428 -180 q 340 -136 378 -136 q 309 -138 327 -136 q 383 -18 365 -79 q 69 55 290 -24 l 56 332 l 69 332 q 190 130 121 211 q 403 0 299 0 q 481 32 452 0 q 505 100 505 57 q 478 173 505 146 q 375 229 448 202 l 307 254 q 125 346 186 297 q 60 485 60 399 q 155 655 60 589 q 358 713 239 713 q 604 673 459 713 l 618 444 l 604 444 q 516 590 572 523 q 345 694 429 694 q 279 668 308 694 q 250 601 250 641 q 380 475 250 518 l 475 444 q 626 368 573 412 q 686 233 686 317 q 625 75 686 142 q 466 -8 570 16 q 401 -18 436 -15 z "},"Ć":{"ha":928,"x_min":33,"x_max":878,"o":"m 444 1014 l 503 1088 q 561 1179 533 1127 q 665 1259 604 1259 q 720 1236 698 1259 q 743 1179 743 1212 q 712 1117 743 1141 q 629 1078 686 1097 q 524 1038 563 1059 l 457 1000 l 444 1014 m 844 933 l 865 564 l 851 564 q 723 809 808 704 q 527 926 629 926 q 443 899 481 926 q 382 823 404 871 q 324 458 324 694 q 343 241 324 330 q 404 89 363 152 q 496 14 437 39 q 561 0 526 0 q 762 146 664 0 q 864 383 829 248 l 878 383 l 865 -14 l 851 -14 q 821 15 849 15 q 755 5 808 15 l 722 -1 q 552 -19 626 -19 q 357 16 452 -19 q 192 112 262 50 q 77 266 118 177 q 33 466 33 361 q 123 742 33 620 q 336 906 205 853 q 534 944 431 944 q 721 919 614 944 q 795 906 774 906 q 829 933 821 906 l 844 933 z "},"ć":{"ha":753,"x_min":33,"x_max":734,"o":"m 319 775 l 378 849 q 436 941 408 889 q 540 1021 479 1021 q 595 998 573 1021 q 618 940 618 974 q 587 878 618 903 q 504 840 562 858 q 399 800 439 821 l 332 762 l 319 775 m 718 254 l 734 245 q 386 -18 618 -18 q 138 75 235 -18 q 60 196 88 123 q 33 336 33 265 q 65 488 33 415 q 155 613 97 560 q 422 713 265 713 q 636 640 553 713 q 713 483 713 571 q 685 400 713 435 q 600 360 653 360 q 511 400 544 360 q 483 481 483 433 q 496 551 483 507 q 508 612 508 589 q 486 669 508 646 q 423 694 460 694 q 318 621 359 694 q 273 435 273 541 q 334 239 273 313 q 510 160 399 160 q 718 254 627 160 z "},"Č":{"ha":928,"x_min":33,"x_max":878,"o":"m 784 1221 l 576 1026 l 483 1026 l 275 1221 l 285 1233 l 529 1154 l 774 1233 l 784 1221 m 844 933 l 865 564 l 851 564 q 723 809 808 704 q 527 926 629 926 q 443 899 481 926 q 382 823 404 871 q 324 458 324 694 q 343 241 324 330 q 404 89 363 152 q 496 14 437 39 q 561 0 526 0 q 762 146 664 0 q 864 383 829 248 l 878 383 l 865 -14 l 851 -14 q 821 15 849 15 q 755 5 808 15 l 722 -1 q 552 -19 626 -19 q 357 16 452 -19 q 192 112 262 50 q 77 266 118 177 q 33 466 33 361 q 123 742 33 620 q 336 906 205 853 q 534 944 431 944 q 721 919 614 944 q 795 906 774 906 q 829 933 821 906 l 844 933 z "},"č":{"ha":753,"x_min":33,"x_max":734,"o":"m 173 981 l 182 992 l 404 920 l 627 992 l 636 981 l 447 804 l 362 804 l 173 981 m 718 254 l 734 245 q 386 -18 618 -18 q 138 75 235 -18 q 60 196 88 123 q 33 336 33 265 q 65 488 33 415 q 155 613 97 560 q 422 713 265 713 q 636 640 553 713 q 713 483 713 571 q 685 400 713 435 q 600 360 653 360 q 511 400 544 360 q 483 481 483 433 q 496 551 483 507 q 508 612 508 589 q 486 669 508 646 q 423 694 460 694 q 318 621 359 694 q 273 435 273 541 q 334 239 273 313 q 510 160 399 160 q 718 254 627 160 z "},"đ":{"ha":853,"x_min":33,"x_max":844,"o":"m 496 795 l 297 795 l 297 811 l 494 811 q 378 934 486 932 l 376 947 q 742 1046 588 992 l 742 811 l 844 811 l 844 795 l 742 795 l 742 270 q 758 142 743 170 q 803 108 771 117 q 844 102 815 104 l 844 88 q 496 -18 679 43 l 496 93 q 285 -18 398 -18 q 132 43 198 -18 q 52 172 79 92 q 33 304 33 233 q 155 605 33 485 q 410 713 264 713 q 496 694 450 713 l 496 748 q 496 795 496 762 m 496 116 l 496 616 q 473 677 496 658 q 427 694 454 694 q 374 676 399 694 q 336 626 350 658 q 292 343 292 529 q 315 144 292 211 q 412 69 342 69 q 472 92 446 69 q 496 116 481 99 z "}," ":{"ha":347,"x_min":0,"x_max":0,"o":""},"­":{"ha":364,"x_min":0,"x_max":364,"o":"m 364 405 l 364 298 l 0 298 l 0 405 l 364 405 z "},"¯":{"ha":694,"x_min":-2,"x_max":697,"o":"m -2 1187 l 697 1187 l 697 1052 l -2 1052 l -2 1187 z "},"·":{"ha":324,"x_min":28,"x_max":295,"o":"m 163 486 q 256 447 217 486 q 295 353 295 408 q 256 258 295 297 q 161 219 217 219 q 67 258 106 219 q 28 353 28 297 q 67 447 28 409 q 163 486 107 486 z "}}}
